G04 #@! TF.GenerationSoftware,KiCad,Pcbnew,(6.0.5)*
G04 #@! TF.CreationDate,2026-09-30T20:58:28+03:00*
G04 #@! TF.ProjectId,8080A_sbc_mini,38303830-415f-4736-9263-5f6d696e692e,rev?*
G04 #@! TF.SameCoordinates,Original*
G04 #@! TF.FileFunction,Soldermask,Top*
G04 #@! TF.FilePolarity,Negative*
%FSLAX46Y46*%
G04 Gerber Fmt 4.6, Leading zero omitted, Abs format (unit mm)*
G04 Created by KiCad (PCBNEW (6.0.5)) date 2026-09-30 20:58:28*
%MOMM*%
%LPD*%
G01*
G04 APERTURE LIST*
%ADD10C,0.100000*%
%ADD11C,4.000000*%
%ADD12R,1.600000X1.600000*%
%ADD13C,1.600000*%
%ADD14R,1.700000X1.700000*%
%ADD15O,1.700000X1.700000*%
%ADD16C,2.200000*%
%ADD17C,1.700000*%
%ADD18C,2.700000*%
%ADD19R,1.800000X1.800000*%
%ADD20C,1.800000*%
%ADD21R,1.200000X1.200000*%
%ADD22C,1.200000*%
%ADD23O,1.600000X1.600000*%
%ADD24C,1.500000*%
G04 APERTURE END LIST*
D10*
X170561500Y-152207000D02*
G75*
G03*
X170561500Y-152207000I-444500J0D01*
G01*
X176502000Y-149707000D02*
G75*
G03*
X176502000Y-149707000I-635000J0D01*
G01*
X169502000Y-149707000D02*
G75*
G03*
X169502000Y-149707000I-635000J0D01*
G01*
X175061500Y-152207000D02*
G75*
G03*
X175061500Y-152207000I-444500J0D01*
G01*
D11*
X130040000Y-145500000D03*
X105040000Y-145500000D03*
D12*
X112000000Y-144080000D03*
D13*
X114770000Y-144080000D03*
X117540000Y-144080000D03*
X120310000Y-144080000D03*
X123080000Y-144080000D03*
X113385000Y-146920000D03*
X116155000Y-146920000D03*
X118925000Y-146920000D03*
X121695000Y-146920000D03*
D14*
X103370000Y-84770000D03*
D15*
X103370000Y-82230000D03*
X105910000Y-84770000D03*
X105910000Y-82230000D03*
X108450000Y-84770000D03*
X108450000Y-82230000D03*
X110990000Y-84770000D03*
X110990000Y-82230000D03*
X113530000Y-84770000D03*
X113530000Y-82230000D03*
X116070000Y-84770000D03*
X116070000Y-82230000D03*
X118610000Y-84770000D03*
X118610000Y-82230000D03*
X121150000Y-84770000D03*
X121150000Y-82230000D03*
X123690000Y-84770000D03*
X123690000Y-82230000D03*
X126230000Y-84770000D03*
X126230000Y-82230000D03*
X128770000Y-84770000D03*
X128770000Y-82230000D03*
X131310000Y-84770000D03*
X131310000Y-82230000D03*
X133850000Y-84770000D03*
X133850000Y-82230000D03*
X136390000Y-84770000D03*
X136390000Y-82230000D03*
X138930000Y-84770000D03*
X138930000Y-82230000D03*
X141470000Y-84770000D03*
X141470000Y-82230000D03*
X144010000Y-84770000D03*
X144010000Y-82230000D03*
X146550000Y-84770000D03*
X146550000Y-82230000D03*
X149090000Y-84770000D03*
X149090000Y-82230000D03*
X151630000Y-84770000D03*
X151630000Y-82230000D03*
D16*
X175867000Y-149707000D03*
X168867000Y-149707000D03*
D17*
X174617000Y-152207000D03*
X170117000Y-152207000D03*
D14*
X171880000Y-86000000D03*
D15*
X174420000Y-86000000D03*
X176960000Y-86000000D03*
X179500000Y-86000000D03*
D18*
X98500000Y-83500000D03*
X98500000Y-132500000D03*
X186500000Y-83500000D03*
X186500000Y-132500000D03*
X156500000Y-83500000D03*
D19*
X181729000Y-149921000D03*
D20*
X179189000Y-149921000D03*
D21*
X187825000Y-151445000D03*
D22*
X185825000Y-151445000D03*
D21*
X165505000Y-137475000D03*
D22*
X167505000Y-137475000D03*
D21*
X164965000Y-146365000D03*
D22*
X164965000Y-144365000D03*
D21*
X162425000Y-141380000D03*
D22*
X162425000Y-139380000D03*
D21*
X164965000Y-150080000D03*
D22*
X164965000Y-152080000D03*
D21*
X136390000Y-152080000D03*
D22*
X138390000Y-152080000D03*
D13*
X130040000Y-89215000D03*
X125040000Y-89215000D03*
D12*
X187825000Y-138110000D03*
D23*
X187825000Y-145730000D03*
D13*
X184650000Y-138110000D03*
D23*
X184650000Y-145730000D03*
D13*
X133215000Y-89215000D03*
D23*
X133215000Y-96835000D03*
D13*
X133215000Y-100010000D03*
D23*
X133215000Y-107630000D03*
D13*
X161155000Y-85405000D03*
D23*
X168775000Y-85405000D03*
D13*
X170045000Y-145095000D03*
D23*
X177665000Y-145095000D03*
D13*
X176395000Y-110170000D03*
D23*
X176395000Y-117790000D03*
D12*
X114800000Y-93025000D03*
D23*
X114800000Y-95565000D03*
X114800000Y-98105000D03*
X114800000Y-100645000D03*
X114800000Y-103185000D03*
X114800000Y-105725000D03*
X114800000Y-108265000D03*
X114800000Y-110805000D03*
X114800000Y-113345000D03*
X114800000Y-115885000D03*
X114800000Y-118425000D03*
X114800000Y-120965000D03*
X130040000Y-120965000D03*
X130040000Y-118425000D03*
X130040000Y-115885000D03*
X130040000Y-113345000D03*
X130040000Y-110805000D03*
X130040000Y-108265000D03*
X130040000Y-105725000D03*
X130040000Y-103185000D03*
X130040000Y-100645000D03*
X130040000Y-98105000D03*
X130040000Y-95565000D03*
X130040000Y-93025000D03*
D12*
X97020000Y-93025000D03*
D23*
X97020000Y-95565000D03*
X97020000Y-98105000D03*
X97020000Y-100645000D03*
X97020000Y-103185000D03*
X97020000Y-105725000D03*
X97020000Y-108265000D03*
X97020000Y-110805000D03*
X97020000Y-113345000D03*
X97020000Y-115885000D03*
X97020000Y-118425000D03*
X97020000Y-120965000D03*
X112260000Y-120965000D03*
X112260000Y-118425000D03*
X112260000Y-115885000D03*
X112260000Y-113345000D03*
X112260000Y-110805000D03*
X112260000Y-108265000D03*
X112260000Y-105725000D03*
X112260000Y-103185000D03*
X112260000Y-100645000D03*
X112260000Y-98105000D03*
X112260000Y-95565000D03*
X112260000Y-93025000D03*
D12*
X140200000Y-125410000D03*
D23*
X140200000Y-127950000D03*
X140200000Y-130490000D03*
X140200000Y-133030000D03*
X140200000Y-135570000D03*
X140200000Y-138110000D03*
X140200000Y-140650000D03*
X147820000Y-140650000D03*
X147820000Y-138110000D03*
X147820000Y-135570000D03*
X147820000Y-133030000D03*
X147820000Y-130490000D03*
X147820000Y-127950000D03*
X147820000Y-125410000D03*
D12*
X97020000Y-89215000D03*
D23*
X99560000Y-89215000D03*
X102100000Y-89215000D03*
X104640000Y-89215000D03*
X107180000Y-89215000D03*
X109720000Y-89215000D03*
X112260000Y-89215000D03*
X114800000Y-89215000D03*
X117340000Y-89215000D03*
D12*
X187190000Y-127950000D03*
D23*
X187190000Y-125410000D03*
X187190000Y-122870000D03*
X187190000Y-120330000D03*
X187190000Y-117790000D03*
X187190000Y-115250000D03*
X187190000Y-112710000D03*
X187190000Y-110170000D03*
X179570000Y-110170000D03*
X179570000Y-112710000D03*
X179570000Y-115250000D03*
X179570000Y-117790000D03*
X179570000Y-120330000D03*
X179570000Y-122870000D03*
X179570000Y-125410000D03*
X179570000Y-127950000D03*
D12*
X138930000Y-103820000D03*
D23*
X141470000Y-103820000D03*
X144010000Y-103820000D03*
X146550000Y-103820000D03*
X149090000Y-103820000D03*
X151630000Y-103820000D03*
X154170000Y-103820000D03*
X156710000Y-103820000D03*
X159250000Y-103820000D03*
X161790000Y-103820000D03*
X164330000Y-103820000D03*
X166870000Y-103820000D03*
X169410000Y-103820000D03*
X171950000Y-103820000D03*
X174490000Y-103820000D03*
X177030000Y-103820000D03*
X179570000Y-103820000D03*
X182110000Y-103820000D03*
X184650000Y-103820000D03*
X187190000Y-103820000D03*
X187190000Y-88580000D03*
X184650000Y-88580000D03*
X182110000Y-88580000D03*
X179570000Y-88580000D03*
X177030000Y-88580000D03*
X174490000Y-88580000D03*
X171950000Y-88580000D03*
X169410000Y-88580000D03*
X166870000Y-88580000D03*
X164330000Y-88580000D03*
X161790000Y-88580000D03*
X159250000Y-88580000D03*
X156710000Y-88580000D03*
X154170000Y-88580000D03*
X151630000Y-88580000D03*
X149090000Y-88580000D03*
X146550000Y-88580000D03*
X144010000Y-88580000D03*
X141470000Y-88580000D03*
X138930000Y-88580000D03*
D12*
X140200000Y-122235000D03*
D23*
X142740000Y-122235000D03*
X145280000Y-122235000D03*
X147820000Y-122235000D03*
X150360000Y-122235000D03*
X152900000Y-122235000D03*
X155440000Y-122235000D03*
X157980000Y-122235000D03*
X160520000Y-122235000D03*
X163060000Y-122235000D03*
X165600000Y-122235000D03*
X168140000Y-122235000D03*
X170680000Y-122235000D03*
X173220000Y-122235000D03*
X173220000Y-106995000D03*
X170680000Y-106995000D03*
X168140000Y-106995000D03*
X165600000Y-106995000D03*
X163060000Y-106995000D03*
X160520000Y-106995000D03*
X157980000Y-106995000D03*
X155440000Y-106995000D03*
X152900000Y-106995000D03*
X150360000Y-106995000D03*
X147820000Y-106995000D03*
X145280000Y-106995000D03*
X142740000Y-106995000D03*
X140200000Y-106995000D03*
D12*
X103370000Y-140015000D03*
D23*
X105910000Y-140015000D03*
X108450000Y-140015000D03*
X110990000Y-140015000D03*
X113530000Y-140015000D03*
X116070000Y-140015000D03*
X118610000Y-140015000D03*
X121150000Y-140015000D03*
X123690000Y-140015000D03*
X126230000Y-140015000D03*
X128770000Y-140015000D03*
X131310000Y-140015000D03*
X133850000Y-140015000D03*
X136390000Y-140015000D03*
X136390000Y-124775000D03*
X133850000Y-124775000D03*
X131310000Y-124775000D03*
X128770000Y-124775000D03*
X126230000Y-124775000D03*
X123690000Y-124775000D03*
X121150000Y-124775000D03*
X118610000Y-124775000D03*
X116070000Y-124775000D03*
X113530000Y-124775000D03*
X110990000Y-124775000D03*
X108450000Y-124775000D03*
X105910000Y-124775000D03*
X103370000Y-124775000D03*
D12*
X160520000Y-144460000D03*
D23*
X157980000Y-144460000D03*
X155440000Y-144460000D03*
X152900000Y-144460000D03*
X150360000Y-144460000D03*
X147820000Y-144460000D03*
X145280000Y-144460000D03*
X142740000Y-144460000D03*
X142740000Y-152080000D03*
X145280000Y-152080000D03*
X147820000Y-152080000D03*
X150360000Y-152080000D03*
X152900000Y-152080000D03*
X155440000Y-152080000D03*
X157980000Y-152080000D03*
X160520000Y-152080000D03*
D12*
X165600000Y-133030000D03*
D23*
X168140000Y-133030000D03*
X170680000Y-133030000D03*
X173220000Y-133030000D03*
X173220000Y-125410000D03*
X170680000Y-125410000D03*
X168140000Y-125410000D03*
X165600000Y-125410000D03*
D24*
X179570000Y-138745000D03*
X179570000Y-133865000D03*
D13*
X133215000Y-110805000D03*
D23*
X133215000Y-118425000D03*
D13*
X176395000Y-127950000D03*
X176395000Y-122950000D03*
X176395000Y-106995000D03*
X181395000Y-106995000D03*
X98290000Y-138190000D03*
X98290000Y-143190000D03*
X166870000Y-141285000D03*
X171870000Y-141285000D03*
X188460000Y-106995000D03*
X183460000Y-106995000D03*
X168775000Y-82230000D03*
X163775000Y-82230000D03*
X137025000Y-143190000D03*
X137025000Y-148190000D03*
X161790000Y-130490000D03*
X161790000Y-125490000D03*
X136390000Y-106995000D03*
X136390000Y-111995000D03*
D12*
X99560000Y-126045000D03*
D13*
X97560000Y-126045000D03*
X175125000Y-136205000D03*
X175125000Y-141205000D03*
D21*
X170585000Y-136840000D03*
D22*
X172585000Y-136840000D03*
D12*
X158615000Y-140650000D03*
D23*
X158615000Y-138110000D03*
X158615000Y-135570000D03*
X158615000Y-133030000D03*
X158615000Y-130490000D03*
X158615000Y-127950000D03*
X158615000Y-125410000D03*
X150995000Y-125410000D03*
X150995000Y-127950000D03*
X150995000Y-130490000D03*
X150995000Y-133030000D03*
X150995000Y-135570000D03*
X150995000Y-138110000D03*
X150995000Y-140650000D03*
M02*
