%FSLAX45Y45*%
G04 Gerber Fmt 4.5, Leading zero omitted, Abs format (unit mm)*
G04 Created by KiCad (PCBNEW (6.0.5)) date 2026-09-30 20:59:02*
%MOMM*%
%LPD*%
G01*
G04 APERTURE LIST*
%TA.AperFunction,Profile*%
%ADD10C,0.050000*%
%TD*%
%ADD11C,0.200000*%
%ADD12C,0.040000*%
%ADD13C,0.060000*%
%ADD14C,0.080000*%
%ADD15C,0.090000*%
%ADD16C,0.100000*%
%ADD17C,0.130000*%
%ADD18C,0.320000*%
G04 APERTURE END LIST*
D10*
X9500000Y-15150000D02*
X9500000Y-8350000D01*
X9850000Y-8000000D02*
G75*
G03*
X9500000Y-8350000I0J-350000D01*
G01*
X19000000Y-8350000D02*
X19000000Y-15150000D01*
X18650000Y-15500000D02*
X9850000Y-15500000D01*
X19000000Y-8350000D02*
G75*
G03*
X18650000Y-8000000I-350000J0D01*
G01*
X9850000Y-8000000D02*
X18650000Y-8000000D01*
X18650000Y-15500000D02*
G75*
G03*
X19000000Y-15150000I0J350000D01*
G01*
X9500000Y-15150000D02*
G75*
G03*
X9850000Y-15500000I350000J0D01*
G01*
D11*
D12*
X9936000Y-10933500D02*
X9976000Y-10973500D01*
X9976000Y-10933500D02*
X9936000Y-10973500D01*
X9999500Y-11822500D02*
X10039500Y-11862500D01*
X10039500Y-11822500D02*
X9999500Y-11862500D01*
X10140501Y-11949500D02*
X10180501Y-11989500D01*
X10180501Y-11949500D02*
X10140501Y-11989500D01*
X10190000Y-11187500D02*
X10230000Y-11227500D01*
X10230000Y-11187500D02*
X10190000Y-11227500D01*
X10253500Y-8711000D02*
X10293500Y-8751000D01*
X10293500Y-8711000D02*
X10253500Y-8751000D01*
X10317000Y-11441500D02*
X10357000Y-11481500D01*
X10357000Y-11441500D02*
X10317000Y-11481500D01*
X10317000Y-11568500D02*
X10357000Y-11608500D01*
X10357000Y-11568500D02*
X10317000Y-11608500D01*
X10444000Y-12203500D02*
X10484000Y-12243500D01*
X10484000Y-12203500D02*
X10444000Y-12243500D01*
X10571000Y-8647500D02*
X10611000Y-8687500D01*
X10611000Y-8647500D02*
X10571000Y-8687500D01*
X10571000Y-9028500D02*
X10611000Y-9068500D01*
X10611000Y-9028500D02*
X10571000Y-9068500D01*
X10571000Y-10679500D02*
X10611000Y-10719500D01*
X10611000Y-10679500D02*
X10571000Y-10719500D01*
X10571000Y-11314500D02*
X10611000Y-11354500D01*
X10611000Y-11314500D02*
X10571000Y-11354500D01*
X10698000Y-11822500D02*
X10738000Y-11862500D01*
X10738000Y-11822500D02*
X10698000Y-11862500D01*
X10825000Y-13410000D02*
X10865000Y-13450000D01*
X10865000Y-13410000D02*
X10825000Y-13450000D01*
X10825000Y-13664000D02*
X10865000Y-13704000D01*
X10865000Y-13664000D02*
X10825000Y-13704000D01*
X10825000Y-14426000D02*
X10865000Y-14466000D01*
X10865000Y-14426000D02*
X10825000Y-14466000D01*
X10888500Y-12076500D02*
X10928500Y-12116500D01*
X10928500Y-12076500D02*
X10888500Y-12116500D01*
X10937999Y-10536449D02*
X10977999Y-10576449D01*
X10977999Y-10536449D02*
X10937999Y-10576449D01*
X10937999Y-10679500D02*
X10977999Y-10719500D01*
X10977999Y-10679500D02*
X10937999Y-10719500D01*
X10952000Y-12902000D02*
X10992000Y-12942000D01*
X10992000Y-12902000D02*
X10952000Y-12942000D01*
X11015499Y-11949500D02*
X11055499Y-11989500D01*
X11055499Y-11949500D02*
X11015499Y-11989500D01*
X11027802Y-8708967D02*
X11067802Y-8748967D01*
X11067802Y-8708967D02*
X11027802Y-8748967D01*
X11079000Y-12902000D02*
X11119000Y-12942000D01*
X11119000Y-12902000D02*
X11079000Y-12942000D01*
X11460000Y-13156000D02*
X11500000Y-13196000D01*
X11500000Y-13156000D02*
X11460000Y-13196000D01*
X11650500Y-11568500D02*
X11690500Y-11608500D01*
X11690500Y-11568500D02*
X11650500Y-11608500D01*
X11714000Y-13664000D02*
X11754000Y-13704000D01*
X11754000Y-13664000D02*
X11714000Y-13704000D01*
X11728000Y-9409500D02*
X11768000Y-9449500D01*
X11768000Y-9409500D02*
X11728000Y-9449500D01*
X11841000Y-11314500D02*
X11881000Y-11354500D01*
X11881000Y-11314500D02*
X11841000Y-11354500D01*
X11918500Y-9282500D02*
X11958500Y-9322500D01*
X11958500Y-9282500D02*
X11918500Y-9322500D01*
X12017500Y-8965000D02*
X12057500Y-9005000D01*
X12057500Y-8965000D02*
X12017500Y-9005000D01*
X12095000Y-11314500D02*
X12135000Y-11354500D01*
X12135000Y-11314500D02*
X12095000Y-11354500D01*
X12095245Y-9657998D02*
X12135245Y-9697998D01*
X12135245Y-9657998D02*
X12095245Y-9697998D01*
X12222000Y-13473500D02*
X12262000Y-13513500D01*
X12262000Y-13473500D02*
X12222000Y-13513500D01*
X12285500Y-11060500D02*
X12325500Y-11100500D01*
X12325500Y-11060500D02*
X12285500Y-11100500D01*
X12299501Y-9917500D02*
X12339501Y-9957500D01*
X12339501Y-9917500D02*
X12299501Y-9957500D01*
X12349000Y-12203500D02*
X12389000Y-12243500D01*
X12389000Y-12203500D02*
X12349000Y-12243500D01*
X12349000Y-13283000D02*
X12389000Y-13323000D01*
X12389000Y-13283000D02*
X12349000Y-13323000D01*
X12412500Y-12076500D02*
X12452500Y-12116500D01*
X12452500Y-12076500D02*
X12412500Y-12116500D01*
X12476000Y-9663500D02*
X12516000Y-9703500D01*
X12516000Y-9663500D02*
X12476000Y-9703500D01*
X12603000Y-12076500D02*
X12643000Y-12116500D01*
X12643000Y-12076500D02*
X12603000Y-12116500D01*
X12603000Y-14553000D02*
X12643000Y-14593000D01*
X12643000Y-14553000D02*
X12603000Y-14593000D01*
X12730000Y-10171500D02*
X12770000Y-10211500D01*
X12770000Y-10171500D02*
X12730000Y-10211500D01*
X12793500Y-10679500D02*
X12833500Y-10719500D01*
X12833500Y-10679500D02*
X12793500Y-10719500D01*
X13238000Y-9219000D02*
X13278000Y-9259000D01*
X13278000Y-9219000D02*
X13238000Y-9259000D01*
X13276100Y-10463600D02*
X13316100Y-10503600D01*
X13316100Y-10463600D02*
X13276100Y-10503600D01*
X13308500Y-11307500D02*
X13348500Y-11347500D01*
X13348500Y-11307500D02*
X13308500Y-11347500D01*
X13428500Y-12267000D02*
X13468500Y-12307000D01*
X13468500Y-12267000D02*
X13428500Y-12307000D01*
X13453900Y-9561900D02*
X13493900Y-9601900D01*
X13493900Y-9561900D02*
X13453900Y-9601900D01*
X13555500Y-10171500D02*
X13595500Y-10211500D01*
X13595500Y-10171500D02*
X13555500Y-10211500D01*
X13555500Y-12140000D02*
X13595500Y-12180000D01*
X13595500Y-12140000D02*
X13555500Y-12180000D01*
X13613498Y-9459000D02*
X13653498Y-9499000D01*
X13653498Y-9459000D02*
X13613498Y-9499000D01*
X13746000Y-8330000D02*
X13786000Y-8370000D01*
X13786000Y-8330000D02*
X13746000Y-8370000D01*
X13758700Y-9498400D02*
X13798700Y-9538400D01*
X13798700Y-9498400D02*
X13758700Y-9538400D01*
X13809500Y-11822500D02*
X13849500Y-11862500D01*
X13849500Y-11822500D02*
X13809500Y-11862500D01*
X14063500Y-9663500D02*
X14103500Y-9703500D01*
X14103500Y-9663500D02*
X14063500Y-9703500D01*
X14190500Y-9663500D02*
X14230500Y-9703500D01*
X14230500Y-9663500D02*
X14190500Y-9703500D01*
X14243009Y-10507520D02*
X14283009Y-10547520D01*
X14283009Y-10507520D02*
X14243009Y-10547520D01*
X14254000Y-9903500D02*
X14294000Y-9943500D01*
X14294000Y-9903500D02*
X14254000Y-9943500D01*
X14317500Y-9663500D02*
X14357500Y-9703500D01*
X14357500Y-9663500D02*
X14317500Y-9703500D01*
X14381000Y-14616500D02*
X14421000Y-14656500D01*
X14421000Y-14616500D02*
X14381000Y-14656500D01*
X14381000Y-14807000D02*
X14421000Y-14847000D01*
X14421000Y-14807000D02*
X14381000Y-14847000D01*
X14444500Y-10944601D02*
X14484500Y-10984601D01*
X14484500Y-10944601D02*
X14444500Y-10984601D01*
X14571500Y-13219500D02*
X14611500Y-13259500D01*
X14611500Y-13219500D02*
X14571500Y-13259500D01*
X14571500Y-13664000D02*
X14611500Y-13704000D01*
X14611500Y-13664000D02*
X14571500Y-13704000D01*
X14762000Y-9981000D02*
X14802000Y-10021000D01*
X14802000Y-9981000D02*
X14762000Y-10021000D01*
X14889000Y-14616500D02*
X14929000Y-14656500D01*
X14929000Y-14616500D02*
X14889000Y-14656500D01*
X14889000Y-14807000D02*
X14929000Y-14847000D01*
X14929000Y-14807000D02*
X14889000Y-14847000D01*
X14952500Y-11634997D02*
X14992500Y-11674997D01*
X14992500Y-11634997D02*
X14952500Y-11674997D01*
X15016000Y-8965000D02*
X15056000Y-9005000D01*
X15056000Y-8965000D02*
X15016000Y-9005000D01*
X15143000Y-9542002D02*
X15183000Y-9582002D01*
X15183000Y-9542002D02*
X15143000Y-9582002D01*
X15206500Y-11060500D02*
X15246500Y-11100500D01*
X15246500Y-11060500D02*
X15206500Y-11100500D01*
X15270000Y-9981000D02*
X15310000Y-10021000D01*
X15310000Y-9981000D02*
X15270000Y-10021000D01*
X15333500Y-12902000D02*
X15373500Y-12942000D01*
X15373500Y-12902000D02*
X15333500Y-12942000D01*
X15397000Y-9166899D02*
X15437000Y-9206899D01*
X15437000Y-9166899D02*
X15397000Y-9206899D01*
X15397000Y-9854000D02*
X15437000Y-9894000D01*
X15437000Y-9854000D02*
X15397000Y-9894000D01*
X15397654Y-9346655D02*
X15437654Y-9386655D01*
X15437654Y-9346655D02*
X15397654Y-9386655D01*
X15524000Y-9854000D02*
X15564000Y-9894000D01*
X15564000Y-9854000D02*
X15524000Y-9894000D01*
X15524000Y-11060500D02*
X15564000Y-11100500D01*
X15564000Y-11060500D02*
X15524000Y-11100500D01*
X15524000Y-11179500D02*
X15564000Y-11219500D01*
X15564000Y-11179500D02*
X15524000Y-11219500D01*
X15524000Y-13918000D02*
X15564000Y-13958000D01*
X15564000Y-13918000D02*
X15524000Y-13958000D01*
X15651000Y-9213498D02*
X15691000Y-9253498D01*
X15691000Y-9213498D02*
X15651000Y-9253498D01*
X15651000Y-12090501D02*
X15691000Y-12130501D01*
X15691000Y-12090501D02*
X15651000Y-12130501D01*
X15795437Y-10222935D02*
X15835437Y-10262935D01*
X15835437Y-10222935D02*
X15795437Y-10262935D01*
X15905000Y-9219000D02*
X15945000Y-9259000D01*
X15945000Y-9219000D02*
X15905000Y-9259000D01*
X16032000Y-10222300D02*
X16072000Y-10262300D01*
X16072000Y-10222300D02*
X16032000Y-10262300D01*
X16032000Y-11694199D02*
X16072000Y-11734199D01*
X16072000Y-11694199D02*
X16032000Y-11734199D01*
X16095500Y-12775000D02*
X16135500Y-12815000D01*
X16135500Y-12775000D02*
X16095500Y-12815000D01*
X16159000Y-9487001D02*
X16199000Y-9527001D01*
X16199000Y-9487001D02*
X16159000Y-9527001D01*
X16159000Y-10997000D02*
X16199000Y-11037000D01*
X16199000Y-10997000D02*
X16159000Y-11037000D01*
X16286000Y-11265001D02*
X16326000Y-11305001D01*
X16326000Y-11265001D02*
X16286000Y-11305001D01*
X16349500Y-11632000D02*
X16389500Y-11672000D01*
X16389500Y-11632000D02*
X16349500Y-11672000D01*
X16349500Y-12775000D02*
X16389500Y-12815000D01*
X16389500Y-12775000D02*
X16349500Y-12815000D01*
X16413000Y-9854000D02*
X16453000Y-9894000D01*
X16453000Y-9854000D02*
X16413000Y-9894000D01*
X16540000Y-11378000D02*
X16580000Y-11418000D01*
X16580000Y-11378000D02*
X16540000Y-11418000D01*
X16667000Y-9790500D02*
X16707000Y-9830500D01*
X16707000Y-9790500D02*
X16667000Y-9830500D01*
X16667000Y-12902000D02*
X16707000Y-12942000D01*
X16707000Y-12902000D02*
X16667000Y-12942000D01*
X16794000Y-9332000D02*
X16834000Y-9372000D01*
X16834000Y-9332000D02*
X16794000Y-9372000D01*
X16857500Y-11378000D02*
X16897500Y-11418000D01*
X16897500Y-11378000D02*
X16857500Y-11418000D01*
X17067701Y-11802799D02*
X17107701Y-11842799D01*
X17107701Y-11802799D02*
X17067701Y-11842799D01*
X17175000Y-9790499D02*
X17215000Y-9830499D01*
X17215000Y-9790499D02*
X17175000Y-9830499D01*
X17175000Y-10997000D02*
X17215000Y-11037000D01*
X17215000Y-10997000D02*
X17175000Y-11037000D01*
X17175000Y-11124000D02*
X17215000Y-11164000D01*
X17215000Y-11124000D02*
X17175000Y-11164000D01*
X17175000Y-11505000D02*
X17215000Y-11545000D01*
X17215000Y-11505000D02*
X17175000Y-11545000D01*
X17175000Y-12902000D02*
X17215000Y-12942000D01*
X17215000Y-12902000D02*
X17175000Y-12942000D01*
X17187700Y-9079300D02*
X17227700Y-9119300D01*
X17227700Y-9079300D02*
X17187700Y-9119300D01*
X17429000Y-11759000D02*
X17469000Y-11799000D01*
X17469000Y-11759000D02*
X17429000Y-11799000D01*
X17429000Y-12648000D02*
X17469000Y-12688000D01*
X17469000Y-12648000D02*
X17429000Y-12688000D01*
X17443001Y-11251000D02*
X17483001Y-11291000D01*
X17483001Y-11251000D02*
X17443001Y-11291000D01*
X17589448Y-11361949D02*
X17629448Y-11401949D01*
X17629448Y-11361949D02*
X17589448Y-11401949D01*
X17619500Y-9409500D02*
X17659500Y-9449500D01*
X17659500Y-9409500D02*
X17619500Y-9449500D01*
X17619500Y-12013000D02*
X17659500Y-12053000D01*
X17659500Y-12013000D02*
X17619500Y-12053000D01*
X17619500Y-12521000D02*
X17659500Y-12561000D01*
X17659500Y-12521000D02*
X17619500Y-12561000D01*
X17688501Y-9224501D02*
X17728501Y-9264501D01*
X17728501Y-9224501D02*
X17688501Y-9264501D01*
X17937000Y-9981000D02*
X17977000Y-10021000D01*
X17977000Y-9981000D02*
X17937000Y-10021000D01*
X17937000Y-14172000D02*
X17977000Y-14212000D01*
X17977000Y-14172000D02*
X17937000Y-14212000D01*
X18191000Y-13092500D02*
X18231000Y-13132500D01*
X18231000Y-13092500D02*
X18191000Y-13132500D01*
X18254500Y-9473000D02*
X18294500Y-9513000D01*
X18294500Y-9473000D02*
X18254500Y-9513000D01*
X18254500Y-10997000D02*
X18294500Y-11037000D01*
X18294500Y-10997000D02*
X18254500Y-11037000D01*
X18254500Y-12140000D02*
X18294500Y-12180000D01*
X18294500Y-12140000D02*
X18254500Y-12180000D01*
X18254500Y-12394000D02*
X18294500Y-12434000D01*
X18294500Y-12394000D02*
X18254500Y-12434000D01*
X18254500Y-12902000D02*
X18294500Y-12942000D01*
X18294500Y-12902000D02*
X18254500Y-12942000D01*
X18318000Y-9981000D02*
X18358000Y-10021000D01*
X18358000Y-9981000D02*
X18318000Y-10021000D01*
X18318000Y-11632000D02*
X18358000Y-11672000D01*
X18358000Y-11632000D02*
X18318000Y-11672000D01*
X18572000Y-11378000D02*
X18612000Y-11418000D01*
X18612000Y-11378000D02*
X18572000Y-11418000D01*
D13*
X13669000Y-15208000D02*
G75*
G03*
X13669000Y-15208000I-30000J0D01*
G01*
X13869000Y-15208000D02*
G75*
G03*
X13869000Y-15208000I-30000J0D01*
G01*
X16272500Y-13938000D02*
G75*
G03*
X16272500Y-13938000I-30000J0D01*
G01*
X16272500Y-14138000D02*
G75*
G03*
X16272500Y-14138000I-30000J0D01*
G01*
X16526500Y-14436500D02*
G75*
G03*
X16526500Y-14436500I-30000J0D01*
G01*
X16526500Y-14636500D02*
G75*
G03*
X16526500Y-14636500I-30000J0D01*
G01*
X16526500Y-15008000D02*
G75*
G03*
X16526500Y-15008000I-30000J0D01*
G01*
X16526500Y-15208000D02*
G75*
G03*
X16526500Y-15208000I-30000J0D01*
G01*
X16580500Y-13747500D02*
G75*
G03*
X16580500Y-13747500I-30000J0D01*
G01*
X16780500Y-13747500D02*
G75*
G03*
X16780500Y-13747500I-30000J0D01*
G01*
X17088500Y-13684000D02*
G75*
G03*
X17088500Y-13684000I-30000J0D01*
G01*
X17288500Y-13684000D02*
G75*
G03*
X17288500Y-13684000I-30000J0D01*
G01*
X18612500Y-15144500D02*
G75*
G03*
X18612500Y-15144500I-30000J0D01*
G01*
X18812500Y-15144500D02*
G75*
G03*
X18812500Y-15144500I-30000J0D01*
G01*
D14*
X9702000Y-8881500D02*
X9702000Y-8961500D01*
X9662000Y-8921500D02*
X9742000Y-8921500D01*
X9702000Y-9262500D02*
X9702000Y-9342500D01*
X9662000Y-9302500D02*
X9742000Y-9302500D01*
X9702000Y-9516500D02*
X9702000Y-9596500D01*
X9662000Y-9556500D02*
X9742000Y-9556500D01*
X9702000Y-9770500D02*
X9702000Y-9850500D01*
X9662000Y-9810500D02*
X9742000Y-9810500D01*
X9702000Y-10024500D02*
X9702000Y-10104500D01*
X9662000Y-10064500D02*
X9742000Y-10064500D01*
X9702000Y-10278500D02*
X9702000Y-10358500D01*
X9662000Y-10318500D02*
X9742000Y-10318500D01*
X9702000Y-10532500D02*
X9702000Y-10612500D01*
X9662000Y-10572500D02*
X9742000Y-10572500D01*
X9702000Y-10786500D02*
X9702000Y-10866500D01*
X9662000Y-10826500D02*
X9742000Y-10826500D01*
X9702000Y-11040500D02*
X9702000Y-11120500D01*
X9662000Y-11080500D02*
X9742000Y-11080500D01*
X9702000Y-11294500D02*
X9702000Y-11374500D01*
X9662000Y-11334500D02*
X9742000Y-11334500D01*
X9702000Y-11548500D02*
X9702000Y-11628500D01*
X9662000Y-11588500D02*
X9742000Y-11588500D01*
X9702000Y-11802500D02*
X9702000Y-11882500D01*
X9662000Y-11842500D02*
X9742000Y-11842500D01*
X9702000Y-12056500D02*
X9702000Y-12136500D01*
X9662000Y-12096500D02*
X9742000Y-12096500D01*
X9756000Y-12564500D02*
X9756000Y-12644500D01*
X9716000Y-12604500D02*
X9796000Y-12604500D01*
X9829000Y-13779000D02*
X9829000Y-13859000D01*
X9789000Y-13819000D02*
X9869000Y-13819000D01*
X9829000Y-14279000D02*
X9829000Y-14359000D01*
X9789000Y-14319000D02*
X9869000Y-14319000D01*
X9956000Y-8881500D02*
X9956000Y-8961500D01*
X9916000Y-8921500D02*
X9996000Y-8921500D01*
X9956000Y-12564500D02*
X9956000Y-12644500D01*
X9916000Y-12604500D02*
X9996000Y-12604500D01*
X10210000Y-8881500D02*
X10210000Y-8961500D01*
X10170000Y-8921500D02*
X10250000Y-8921500D01*
X10337000Y-12437500D02*
X10337000Y-12517500D01*
X10297000Y-12477500D02*
X10377000Y-12477500D01*
X10337000Y-13961500D02*
X10337000Y-14041500D01*
X10297000Y-14001500D02*
X10377000Y-14001500D01*
X10464000Y-8881500D02*
X10464000Y-8961500D01*
X10424000Y-8921500D02*
X10504000Y-8921500D01*
X10591000Y-12437500D02*
X10591000Y-12517500D01*
X10551000Y-12477500D02*
X10631000Y-12477500D01*
X10591000Y-13961500D02*
X10591000Y-14041500D01*
X10551000Y-14001500D02*
X10631000Y-14001500D01*
X10718000Y-8881500D02*
X10718000Y-8961500D01*
X10678000Y-8921500D02*
X10758000Y-8921500D01*
X10845000Y-12437500D02*
X10845000Y-12517500D01*
X10805000Y-12477500D02*
X10885000Y-12477500D01*
X10845000Y-13961500D02*
X10845000Y-14041500D01*
X10805000Y-14001500D02*
X10885000Y-14001500D01*
X10972000Y-8881500D02*
X10972000Y-8961500D01*
X10932000Y-8921500D02*
X11012000Y-8921500D01*
X11099000Y-12437500D02*
X11099000Y-12517500D01*
X11059000Y-12477500D02*
X11139000Y-12477500D01*
X11099000Y-13961500D02*
X11099000Y-14041500D01*
X11059000Y-14001500D02*
X11139000Y-14001500D01*
X11226000Y-8881500D02*
X11226000Y-8961500D01*
X11186000Y-8921500D02*
X11266000Y-8921500D01*
X11226000Y-9262500D02*
X11226000Y-9342500D01*
X11186000Y-9302500D02*
X11266000Y-9302500D01*
X11226000Y-9516500D02*
X11226000Y-9596500D01*
X11186000Y-9556500D02*
X11266000Y-9556500D01*
X11226000Y-9770500D02*
X11226000Y-9850500D01*
X11186000Y-9810500D02*
X11266000Y-9810500D01*
X11226000Y-10024500D02*
X11226000Y-10104500D01*
X11186000Y-10064500D02*
X11266000Y-10064500D01*
X11226000Y-10278500D02*
X11226000Y-10358500D01*
X11186000Y-10318500D02*
X11266000Y-10318500D01*
X11226000Y-10532500D02*
X11226000Y-10612500D01*
X11186000Y-10572500D02*
X11266000Y-10572500D01*
X11226000Y-10786500D02*
X11226000Y-10866500D01*
X11186000Y-10826500D02*
X11266000Y-10826500D01*
X11226000Y-11040500D02*
X11226000Y-11120500D01*
X11186000Y-11080500D02*
X11266000Y-11080500D01*
X11226000Y-11294500D02*
X11226000Y-11374500D01*
X11186000Y-11334500D02*
X11266000Y-11334500D01*
X11226000Y-11548500D02*
X11226000Y-11628500D01*
X11186000Y-11588500D02*
X11266000Y-11588500D01*
X11226000Y-11802500D02*
X11226000Y-11882500D01*
X11186000Y-11842500D02*
X11266000Y-11842500D01*
X11226000Y-12056500D02*
X11226000Y-12136500D01*
X11186000Y-12096500D02*
X11266000Y-12096500D01*
X11353000Y-12437500D02*
X11353000Y-12517500D01*
X11313000Y-12477500D02*
X11393000Y-12477500D01*
X11353000Y-13961500D02*
X11353000Y-14041500D01*
X11313000Y-14001500D02*
X11393000Y-14001500D01*
X11480000Y-8881500D02*
X11480000Y-8961500D01*
X11440000Y-8921500D02*
X11520000Y-8921500D01*
X11480000Y-9262500D02*
X11480000Y-9342500D01*
X11440000Y-9302500D02*
X11520000Y-9302500D01*
X11480000Y-9516500D02*
X11480000Y-9596500D01*
X11440000Y-9556500D02*
X11520000Y-9556500D01*
X11480000Y-9770500D02*
X11480000Y-9850500D01*
X11440000Y-9810500D02*
X11520000Y-9810500D01*
X11480000Y-10024500D02*
X11480000Y-10104500D01*
X11440000Y-10064500D02*
X11520000Y-10064500D01*
X11480000Y-10278500D02*
X11480000Y-10358500D01*
X11440000Y-10318500D02*
X11520000Y-10318500D01*
X11480000Y-10532500D02*
X11480000Y-10612500D01*
X11440000Y-10572500D02*
X11520000Y-10572500D01*
X11480000Y-10786500D02*
X11480000Y-10866500D01*
X11440000Y-10826500D02*
X11520000Y-10826500D01*
X11480000Y-11040500D02*
X11480000Y-11120500D01*
X11440000Y-11080500D02*
X11520000Y-11080500D01*
X11480000Y-11294500D02*
X11480000Y-11374500D01*
X11440000Y-11334500D02*
X11520000Y-11334500D01*
X11480000Y-11548500D02*
X11480000Y-11628500D01*
X11440000Y-11588500D02*
X11520000Y-11588500D01*
X11480000Y-11802500D02*
X11480000Y-11882500D01*
X11440000Y-11842500D02*
X11520000Y-11842500D01*
X11480000Y-12056500D02*
X11480000Y-12136500D01*
X11440000Y-12096500D02*
X11520000Y-12096500D01*
X11607000Y-12437500D02*
X11607000Y-12517500D01*
X11567000Y-12477500D02*
X11647000Y-12477500D01*
X11607000Y-13961500D02*
X11607000Y-14041500D01*
X11567000Y-14001500D02*
X11647000Y-14001500D01*
X11734000Y-8881500D02*
X11734000Y-8961500D01*
X11694000Y-8921500D02*
X11774000Y-8921500D01*
X11861000Y-12437500D02*
X11861000Y-12517500D01*
X11821000Y-12477500D02*
X11901000Y-12477500D01*
X11861000Y-13961500D02*
X11861000Y-14041500D01*
X11821000Y-14001500D02*
X11901000Y-14001500D01*
X12115000Y-12437500D02*
X12115000Y-12517500D01*
X12075000Y-12477500D02*
X12155000Y-12477500D01*
X12115000Y-13961500D02*
X12115000Y-14041500D01*
X12075000Y-14001500D02*
X12155000Y-14001500D01*
X12369000Y-12437500D02*
X12369000Y-12517500D01*
X12329000Y-12477500D02*
X12409000Y-12477500D01*
X12369000Y-13961500D02*
X12369000Y-14041500D01*
X12329000Y-14001500D02*
X12409000Y-14001500D01*
X12504000Y-8881500D02*
X12504000Y-8961500D01*
X12464000Y-8921500D02*
X12544000Y-8921500D01*
X12623000Y-12437500D02*
X12623000Y-12517500D01*
X12583000Y-12477500D02*
X12663000Y-12477500D01*
X12623000Y-13961500D02*
X12623000Y-14041500D01*
X12583000Y-14001500D02*
X12663000Y-14001500D01*
X12877000Y-12437500D02*
X12877000Y-12517500D01*
X12837000Y-12477500D02*
X12917000Y-12477500D01*
X12877000Y-13961500D02*
X12877000Y-14041500D01*
X12837000Y-14001500D02*
X12917000Y-14001500D01*
X13004000Y-8881500D02*
X13004000Y-8961500D01*
X12964000Y-8921500D02*
X13044000Y-8921500D01*
X13004000Y-9262500D02*
X13004000Y-9342500D01*
X12964000Y-9302500D02*
X13044000Y-9302500D01*
X13004000Y-9516500D02*
X13004000Y-9596500D01*
X12964000Y-9556500D02*
X13044000Y-9556500D01*
X13004000Y-9770500D02*
X13004000Y-9850500D01*
X12964000Y-9810500D02*
X13044000Y-9810500D01*
X13004000Y-10024500D02*
X13004000Y-10104500D01*
X12964000Y-10064500D02*
X13044000Y-10064500D01*
X13004000Y-10278500D02*
X13004000Y-10358500D01*
X12964000Y-10318500D02*
X13044000Y-10318500D01*
X13004000Y-10532500D02*
X13004000Y-10612500D01*
X12964000Y-10572500D02*
X13044000Y-10572500D01*
X13004000Y-10786500D02*
X13004000Y-10866500D01*
X12964000Y-10826500D02*
X13044000Y-10826500D01*
X13004000Y-11040500D02*
X13004000Y-11120500D01*
X12964000Y-11080500D02*
X13044000Y-11080500D01*
X13004000Y-11294500D02*
X13004000Y-11374500D01*
X12964000Y-11334500D02*
X13044000Y-11334500D01*
X13004000Y-11548500D02*
X13004000Y-11628500D01*
X12964000Y-11588500D02*
X13044000Y-11588500D01*
X13004000Y-11802500D02*
X13004000Y-11882500D01*
X12964000Y-11842500D02*
X13044000Y-11842500D01*
X13004000Y-12056500D02*
X13004000Y-12136500D01*
X12964000Y-12096500D02*
X13044000Y-12096500D01*
X13131000Y-12437500D02*
X13131000Y-12517500D01*
X13091000Y-12477500D02*
X13171000Y-12477500D01*
X13131000Y-13961500D02*
X13131000Y-14041500D01*
X13091000Y-14001500D02*
X13171000Y-14001500D01*
X13321500Y-8881500D02*
X13321500Y-8961500D01*
X13281500Y-8921500D02*
X13361500Y-8921500D01*
X13321500Y-9643500D02*
X13321500Y-9723500D01*
X13281500Y-9683500D02*
X13361500Y-9683500D01*
X13321500Y-9961000D02*
X13321500Y-10041000D01*
X13281500Y-10001000D02*
X13361500Y-10001000D01*
X13321500Y-10723000D02*
X13321500Y-10803000D01*
X13281500Y-10763000D02*
X13361500Y-10763000D01*
X13321500Y-11040500D02*
X13321500Y-11120500D01*
X13281500Y-11080500D02*
X13361500Y-11080500D01*
X13321500Y-11802500D02*
X13321500Y-11882500D01*
X13281500Y-11842500D02*
X13361500Y-11842500D01*
X13385000Y-12437500D02*
X13385000Y-12517500D01*
X13345000Y-12477500D02*
X13425000Y-12477500D01*
X13385000Y-13961500D02*
X13385000Y-14041500D01*
X13345000Y-14001500D02*
X13425000Y-14001500D01*
X13639000Y-10659500D02*
X13639000Y-10739500D01*
X13599000Y-10699500D02*
X13679000Y-10699500D01*
X13639000Y-11159500D02*
X13639000Y-11239500D01*
X13599000Y-11199500D02*
X13679000Y-11199500D01*
X13639000Y-12437500D02*
X13639000Y-12517500D01*
X13599000Y-12477500D02*
X13679000Y-12477500D01*
X13639000Y-13961500D02*
X13639000Y-14041500D01*
X13599000Y-14001500D02*
X13679000Y-14001500D01*
X13702500Y-14279000D02*
X13702500Y-14359000D01*
X13662500Y-14319000D02*
X13742500Y-14319000D01*
X13702500Y-14779000D02*
X13702500Y-14859000D01*
X13662500Y-14819000D02*
X13742500Y-14819000D01*
X13893000Y-8818000D02*
X13893000Y-8898000D01*
X13853000Y-8858000D02*
X13933000Y-8858000D01*
X13893000Y-10342000D02*
X13893000Y-10422000D01*
X13853000Y-10382000D02*
X13933000Y-10382000D01*
X14020000Y-10659500D02*
X14020000Y-10739500D01*
X13980000Y-10699500D02*
X14060000Y-10699500D01*
X14020000Y-12183500D02*
X14020000Y-12263500D01*
X13980000Y-12223500D02*
X14060000Y-12223500D01*
X14020000Y-12501000D02*
X14020000Y-12581000D01*
X13980000Y-12541000D02*
X14060000Y-12541000D01*
X14020000Y-12755000D02*
X14020000Y-12835000D01*
X13980000Y-12795000D02*
X14060000Y-12795000D01*
X14020000Y-13009000D02*
X14020000Y-13089000D01*
X13980000Y-13049000D02*
X14060000Y-13049000D01*
X14020000Y-13263000D02*
X14020000Y-13343000D01*
X13980000Y-13303000D02*
X14060000Y-13303000D01*
X14020000Y-13517000D02*
X14020000Y-13597000D01*
X13980000Y-13557000D02*
X14060000Y-13557000D01*
X14020000Y-13771000D02*
X14020000Y-13851000D01*
X13980000Y-13811000D02*
X14060000Y-13811000D01*
X14020000Y-14025000D02*
X14020000Y-14105000D01*
X13980000Y-14065000D02*
X14060000Y-14065000D01*
X14147000Y-8818000D02*
X14147000Y-8898000D01*
X14107000Y-8858000D02*
X14187000Y-8858000D01*
X14147000Y-10342000D02*
X14147000Y-10422000D01*
X14107000Y-10382000D02*
X14187000Y-10382000D01*
X14274000Y-10659500D02*
X14274000Y-10739500D01*
X14234000Y-10699500D02*
X14314000Y-10699500D01*
X14274000Y-12183500D02*
X14274000Y-12263500D01*
X14234000Y-12223500D02*
X14314000Y-12223500D01*
X14274000Y-14406000D02*
X14274000Y-14486000D01*
X14234000Y-14446000D02*
X14314000Y-14446000D01*
X14274000Y-15168000D02*
X14274000Y-15248000D01*
X14234000Y-15208000D02*
X14314000Y-15208000D01*
X14401000Y-8818000D02*
X14401000Y-8898000D01*
X14361000Y-8858000D02*
X14441000Y-8858000D01*
X14401000Y-10342000D02*
X14401000Y-10422000D01*
X14361000Y-10382000D02*
X14441000Y-10382000D01*
X14528000Y-10659500D02*
X14528000Y-10739500D01*
X14488000Y-10699500D02*
X14568000Y-10699500D01*
X14528000Y-12183500D02*
X14528000Y-12263500D01*
X14488000Y-12223500D02*
X14568000Y-12223500D01*
X14528000Y-14406000D02*
X14528000Y-14486000D01*
X14488000Y-14446000D02*
X14568000Y-14446000D01*
X14528000Y-15168000D02*
X14528000Y-15248000D01*
X14488000Y-15208000D02*
X14568000Y-15208000D01*
X14655000Y-8818000D02*
X14655000Y-8898000D01*
X14615000Y-8858000D02*
X14695000Y-8858000D01*
X14655000Y-10342000D02*
X14655000Y-10422000D01*
X14615000Y-10382000D02*
X14695000Y-10382000D01*
X14782000Y-10659500D02*
X14782000Y-10739500D01*
X14742000Y-10699500D02*
X14822000Y-10699500D01*
X14782000Y-12183500D02*
X14782000Y-12263500D01*
X14742000Y-12223500D02*
X14822000Y-12223500D01*
X14782000Y-12501000D02*
X14782000Y-12581000D01*
X14742000Y-12541000D02*
X14822000Y-12541000D01*
X14782000Y-12755000D02*
X14782000Y-12835000D01*
X14742000Y-12795000D02*
X14822000Y-12795000D01*
X14782000Y-13009000D02*
X14782000Y-13089000D01*
X14742000Y-13049000D02*
X14822000Y-13049000D01*
X14782000Y-13263000D02*
X14782000Y-13343000D01*
X14742000Y-13303000D02*
X14822000Y-13303000D01*
X14782000Y-13517000D02*
X14782000Y-13597000D01*
X14742000Y-13557000D02*
X14822000Y-13557000D01*
X14782000Y-13771000D02*
X14782000Y-13851000D01*
X14742000Y-13811000D02*
X14822000Y-13811000D01*
X14782000Y-14025000D02*
X14782000Y-14105000D01*
X14742000Y-14065000D02*
X14822000Y-14065000D01*
X14782000Y-14406000D02*
X14782000Y-14486000D01*
X14742000Y-14446000D02*
X14822000Y-14446000D01*
X14782000Y-15168000D02*
X14782000Y-15248000D01*
X14742000Y-15208000D02*
X14822000Y-15208000D01*
X14909000Y-8818000D02*
X14909000Y-8898000D01*
X14869000Y-8858000D02*
X14949000Y-8858000D01*
X14909000Y-10342000D02*
X14909000Y-10422000D01*
X14869000Y-10382000D02*
X14949000Y-10382000D01*
X15036000Y-10659500D02*
X15036000Y-10739500D01*
X14996000Y-10699500D02*
X15076000Y-10699500D01*
X15036000Y-12183500D02*
X15036000Y-12263500D01*
X14996000Y-12223500D02*
X15076000Y-12223500D01*
X15036000Y-14406000D02*
X15036000Y-14486000D01*
X14996000Y-14446000D02*
X15076000Y-14446000D01*
X15036000Y-15168000D02*
X15036000Y-15248000D01*
X14996000Y-15208000D02*
X15076000Y-15208000D01*
X15099500Y-12501000D02*
X15099500Y-12581000D01*
X15059500Y-12541000D02*
X15139500Y-12541000D01*
X15099500Y-12755000D02*
X15099500Y-12835000D01*
X15059500Y-12795000D02*
X15139500Y-12795000D01*
X15099500Y-13009000D02*
X15099500Y-13089000D01*
X15059500Y-13049000D02*
X15139500Y-13049000D01*
X15099500Y-13263000D02*
X15099500Y-13343000D01*
X15059500Y-13303000D02*
X15139500Y-13303000D01*
X15099500Y-13517000D02*
X15099500Y-13597000D01*
X15059500Y-13557000D02*
X15139500Y-13557000D01*
X15099500Y-13771000D02*
X15099500Y-13851000D01*
X15059500Y-13811000D02*
X15139500Y-13811000D01*
X15099500Y-14025000D02*
X15099500Y-14105000D01*
X15059500Y-14065000D02*
X15139500Y-14065000D01*
X15163000Y-8818000D02*
X15163000Y-8898000D01*
X15123000Y-8858000D02*
X15203000Y-8858000D01*
X15163000Y-10342000D02*
X15163000Y-10422000D01*
X15123000Y-10382000D02*
X15203000Y-10382000D01*
X15290000Y-10659500D02*
X15290000Y-10739500D01*
X15250000Y-10699500D02*
X15330000Y-10699500D01*
X15290000Y-12183500D02*
X15290000Y-12263500D01*
X15250000Y-12223500D02*
X15330000Y-12223500D01*
X15290000Y-14406000D02*
X15290000Y-14486000D01*
X15250000Y-14446000D02*
X15330000Y-14446000D01*
X15290000Y-15168000D02*
X15290000Y-15248000D01*
X15250000Y-15208000D02*
X15330000Y-15208000D01*
X15417000Y-8818000D02*
X15417000Y-8898000D01*
X15377000Y-8858000D02*
X15457000Y-8858000D01*
X15417000Y-10342000D02*
X15417000Y-10422000D01*
X15377000Y-10382000D02*
X15457000Y-10382000D01*
X15544000Y-10659500D02*
X15544000Y-10739500D01*
X15504000Y-10699500D02*
X15584000Y-10699500D01*
X15544000Y-12183500D02*
X15544000Y-12263500D01*
X15504000Y-12223500D02*
X15584000Y-12223500D01*
X15544000Y-14406000D02*
X15544000Y-14486000D01*
X15504000Y-14446000D02*
X15584000Y-14446000D01*
X15544000Y-15168000D02*
X15544000Y-15248000D01*
X15504000Y-15208000D02*
X15584000Y-15208000D01*
X15671000Y-8818000D02*
X15671000Y-8898000D01*
X15631000Y-8858000D02*
X15711000Y-8858000D01*
X15671000Y-10342000D02*
X15671000Y-10422000D01*
X15631000Y-10382000D02*
X15711000Y-10382000D01*
X15798000Y-10659500D02*
X15798000Y-10739500D01*
X15758000Y-10699500D02*
X15838000Y-10699500D01*
X15798000Y-12183500D02*
X15798000Y-12263500D01*
X15758000Y-12223500D02*
X15838000Y-12223500D01*
X15798000Y-14406000D02*
X15798000Y-14486000D01*
X15758000Y-14446000D02*
X15838000Y-14446000D01*
X15798000Y-15168000D02*
X15798000Y-15248000D01*
X15758000Y-15208000D02*
X15838000Y-15208000D01*
X15861500Y-12501000D02*
X15861500Y-12581000D01*
X15821500Y-12541000D02*
X15901500Y-12541000D01*
X15861500Y-12755000D02*
X15861500Y-12835000D01*
X15821500Y-12795000D02*
X15901500Y-12795000D01*
X15861500Y-13009000D02*
X15861500Y-13089000D01*
X15821500Y-13049000D02*
X15901500Y-13049000D01*
X15861500Y-13263000D02*
X15861500Y-13343000D01*
X15821500Y-13303000D02*
X15901500Y-13303000D01*
X15861500Y-13517000D02*
X15861500Y-13597000D01*
X15821500Y-13557000D02*
X15901500Y-13557000D01*
X15861500Y-13771000D02*
X15861500Y-13851000D01*
X15821500Y-13811000D02*
X15901500Y-13811000D01*
X15861500Y-14025000D02*
X15861500Y-14105000D01*
X15821500Y-14065000D02*
X15901500Y-14065000D01*
X15925000Y-8818000D02*
X15925000Y-8898000D01*
X15885000Y-8858000D02*
X15965000Y-8858000D01*
X15925000Y-10342000D02*
X15925000Y-10422000D01*
X15885000Y-10382000D02*
X15965000Y-10382000D01*
X16052000Y-10659500D02*
X16052000Y-10739500D01*
X16012000Y-10699500D02*
X16092000Y-10699500D01*
X16052000Y-12183500D02*
X16052000Y-12263500D01*
X16012000Y-12223500D02*
X16092000Y-12223500D01*
X16052000Y-14406000D02*
X16052000Y-14486000D01*
X16012000Y-14446000D02*
X16092000Y-14446000D01*
X16052000Y-15168000D02*
X16052000Y-15248000D01*
X16012000Y-15208000D02*
X16092000Y-15208000D01*
X16115500Y-8500500D02*
X16115500Y-8580500D01*
X16075500Y-8540500D02*
X16155500Y-8540500D01*
X16179000Y-8818000D02*
X16179000Y-8898000D01*
X16139000Y-8858000D02*
X16219000Y-8858000D01*
X16179000Y-10342000D02*
X16179000Y-10422000D01*
X16139000Y-10382000D02*
X16219000Y-10382000D01*
X16179000Y-12509000D02*
X16179000Y-12589000D01*
X16139000Y-12549000D02*
X16219000Y-12549000D01*
X16179000Y-13009000D02*
X16179000Y-13089000D01*
X16139000Y-13049000D02*
X16219000Y-13049000D01*
X16306000Y-10659500D02*
X16306000Y-10739500D01*
X16266000Y-10699500D02*
X16346000Y-10699500D01*
X16306000Y-12183500D02*
X16306000Y-12263500D01*
X16266000Y-12223500D02*
X16346000Y-12223500D01*
X16377500Y-8183000D02*
X16377500Y-8263000D01*
X16337500Y-8223000D02*
X16417500Y-8223000D01*
X16433000Y-8818000D02*
X16433000Y-8898000D01*
X16393000Y-8858000D02*
X16473000Y-8858000D01*
X16433000Y-10342000D02*
X16433000Y-10422000D01*
X16393000Y-10382000D02*
X16473000Y-10382000D01*
X16560000Y-10659500D02*
X16560000Y-10739500D01*
X16520000Y-10699500D02*
X16600000Y-10699500D01*
X16560000Y-12183500D02*
X16560000Y-12263500D01*
X16520000Y-12223500D02*
X16600000Y-12223500D01*
X16560000Y-12501000D02*
X16560000Y-12581000D01*
X16520000Y-12541000D02*
X16600000Y-12541000D01*
X16560000Y-13263000D02*
X16560000Y-13343000D01*
X16520000Y-13303000D02*
X16600000Y-13303000D01*
X16687000Y-8818000D02*
X16687000Y-8898000D01*
X16647000Y-8858000D02*
X16727000Y-8858000D01*
X16687000Y-10342000D02*
X16687000Y-10422000D01*
X16647000Y-10382000D02*
X16727000Y-10382000D01*
X16687000Y-14088500D02*
X16687000Y-14168500D01*
X16647000Y-14128500D02*
X16727000Y-14128500D01*
X16814000Y-10659500D02*
X16814000Y-10739500D01*
X16774000Y-10699500D02*
X16854000Y-10699500D01*
X16814000Y-12183500D02*
X16814000Y-12263500D01*
X16774000Y-12223500D02*
X16854000Y-12223500D01*
X16814000Y-12501000D02*
X16814000Y-12581000D01*
X16774000Y-12541000D02*
X16854000Y-12541000D01*
X16814000Y-13263000D02*
X16814000Y-13343000D01*
X16774000Y-13303000D02*
X16854000Y-13303000D01*
X16877500Y-8183000D02*
X16877500Y-8263000D01*
X16837500Y-8223000D02*
X16917500Y-8223000D01*
X16877500Y-8500500D02*
X16877500Y-8580500D01*
X16837500Y-8540500D02*
X16917500Y-8540500D01*
X16941000Y-8818000D02*
X16941000Y-8898000D01*
X16901000Y-8858000D02*
X16981000Y-8858000D01*
X16941000Y-10342000D02*
X16941000Y-10422000D01*
X16901000Y-10382000D02*
X16981000Y-10382000D01*
X17004500Y-14469500D02*
X17004500Y-14549500D01*
X16964500Y-14509500D02*
X17044500Y-14509500D01*
X17068000Y-10659500D02*
X17068000Y-10739500D01*
X17028000Y-10699500D02*
X17108000Y-10699500D01*
X17068000Y-12183500D02*
X17068000Y-12263500D01*
X17028000Y-12223500D02*
X17108000Y-12223500D01*
X17068000Y-12501000D02*
X17068000Y-12581000D01*
X17028000Y-12541000D02*
X17108000Y-12541000D01*
X17068000Y-13263000D02*
X17068000Y-13343000D01*
X17028000Y-13303000D02*
X17108000Y-13303000D01*
X17187000Y-14088500D02*
X17187000Y-14168500D01*
X17147000Y-14128500D02*
X17227000Y-14128500D01*
X17195000Y-8818000D02*
X17195000Y-8898000D01*
X17155000Y-8858000D02*
X17235000Y-8858000D01*
X17195000Y-10342000D02*
X17195000Y-10422000D01*
X17155000Y-10382000D02*
X17235000Y-10382000D01*
X17322000Y-10659500D02*
X17322000Y-10739500D01*
X17282000Y-10699500D02*
X17362000Y-10699500D01*
X17322000Y-12183500D02*
X17322000Y-12263500D01*
X17282000Y-12223500D02*
X17362000Y-12223500D01*
X17322000Y-12501000D02*
X17322000Y-12581000D01*
X17282000Y-12541000D02*
X17362000Y-12541000D01*
X17322000Y-13263000D02*
X17322000Y-13343000D01*
X17282000Y-13303000D02*
X17362000Y-13303000D01*
X17449000Y-8818000D02*
X17449000Y-8898000D01*
X17409000Y-8858000D02*
X17489000Y-8858000D01*
X17449000Y-10342000D02*
X17449000Y-10422000D01*
X17409000Y-10382000D02*
X17489000Y-10382000D01*
X17512500Y-13580500D02*
X17512500Y-13660500D01*
X17472500Y-13620500D02*
X17552500Y-13620500D01*
X17512500Y-14080500D02*
X17512500Y-14160500D01*
X17472500Y-14120500D02*
X17552500Y-14120500D01*
X17639500Y-10659500D02*
X17639500Y-10739500D01*
X17599500Y-10699500D02*
X17679500Y-10699500D01*
X17639500Y-10977000D02*
X17639500Y-11057000D01*
X17599500Y-11017000D02*
X17679500Y-11017000D01*
X17639500Y-11739000D02*
X17639500Y-11819000D01*
X17599500Y-11779000D02*
X17679500Y-11779000D01*
X17639500Y-12255000D02*
X17639500Y-12335000D01*
X17599500Y-12295000D02*
X17679500Y-12295000D01*
X17639500Y-12755000D02*
X17639500Y-12835000D01*
X17599500Y-12795000D02*
X17679500Y-12795000D01*
X17703000Y-8818000D02*
X17703000Y-8898000D01*
X17663000Y-8858000D02*
X17743000Y-8858000D01*
X17703000Y-10342000D02*
X17703000Y-10422000D01*
X17663000Y-10382000D02*
X17743000Y-10382000D01*
X17766500Y-14469500D02*
X17766500Y-14549500D01*
X17726500Y-14509500D02*
X17806500Y-14509500D01*
X17957000Y-8818000D02*
X17957000Y-8898000D01*
X17917000Y-8858000D02*
X17997000Y-8858000D01*
X17957000Y-10342000D02*
X17957000Y-10422000D01*
X17917000Y-10382000D02*
X17997000Y-10382000D01*
X17957000Y-10977000D02*
X17957000Y-11057000D01*
X17917000Y-11017000D02*
X17997000Y-11017000D01*
X17957000Y-11231000D02*
X17957000Y-11311000D01*
X17917000Y-11271000D02*
X17997000Y-11271000D01*
X17957000Y-11485000D02*
X17957000Y-11565000D01*
X17917000Y-11525000D02*
X17997000Y-11525000D01*
X17957000Y-11739000D02*
X17957000Y-11819000D01*
X17917000Y-11779000D02*
X17997000Y-11779000D01*
X17957000Y-11993000D02*
X17957000Y-12073000D01*
X17917000Y-12033000D02*
X17997000Y-12033000D01*
X17957000Y-12247000D02*
X17957000Y-12327000D01*
X17917000Y-12287000D02*
X17997000Y-12287000D01*
X17957000Y-12501000D02*
X17957000Y-12581000D01*
X17917000Y-12541000D02*
X17997000Y-12541000D01*
X17957000Y-12755000D02*
X17957000Y-12835000D01*
X17917000Y-12795000D02*
X17997000Y-12795000D01*
X17957000Y-13346500D02*
X17957000Y-13426500D01*
X17917000Y-13386500D02*
X17997000Y-13386500D01*
X17957000Y-13834500D02*
X17957000Y-13914500D01*
X17917000Y-13874500D02*
X17997000Y-13874500D01*
X18139500Y-10659500D02*
X18139500Y-10739500D01*
X18099500Y-10699500D02*
X18179500Y-10699500D01*
X18211000Y-8818000D02*
X18211000Y-8898000D01*
X18171000Y-8858000D02*
X18251000Y-8858000D01*
X18211000Y-10342000D02*
X18211000Y-10422000D01*
X18171000Y-10382000D02*
X18251000Y-10382000D01*
X18346000Y-10659500D02*
X18346000Y-10739500D01*
X18306000Y-10699500D02*
X18386000Y-10699500D01*
X18465000Y-8818000D02*
X18465000Y-8898000D01*
X18425000Y-8858000D02*
X18505000Y-8858000D01*
X18465000Y-10342000D02*
X18465000Y-10422000D01*
X18425000Y-10382000D02*
X18505000Y-10382000D01*
X18465000Y-13771000D02*
X18465000Y-13851000D01*
X18425000Y-13811000D02*
X18505000Y-13811000D01*
X18465000Y-14533000D02*
X18465000Y-14613000D01*
X18425000Y-14573000D02*
X18505000Y-14573000D01*
X18719000Y-8818000D02*
X18719000Y-8898000D01*
X18679000Y-8858000D02*
X18759000Y-8858000D01*
X18719000Y-10342000D02*
X18719000Y-10422000D01*
X18679000Y-10382000D02*
X18759000Y-10382000D01*
X18719000Y-10977000D02*
X18719000Y-11057000D01*
X18679000Y-11017000D02*
X18759000Y-11017000D01*
X18719000Y-11231000D02*
X18719000Y-11311000D01*
X18679000Y-11271000D02*
X18759000Y-11271000D01*
X18719000Y-11485000D02*
X18719000Y-11565000D01*
X18679000Y-11525000D02*
X18759000Y-11525000D01*
X18719000Y-11739000D02*
X18719000Y-11819000D01*
X18679000Y-11779000D02*
X18759000Y-11779000D01*
X18719000Y-11993000D02*
X18719000Y-12073000D01*
X18679000Y-12033000D02*
X18759000Y-12033000D01*
X18719000Y-12247000D02*
X18719000Y-12327000D01*
X18679000Y-12287000D02*
X18759000Y-12287000D01*
X18719000Y-12501000D02*
X18719000Y-12581000D01*
X18679000Y-12541000D02*
X18759000Y-12541000D01*
X18719000Y-12755000D02*
X18719000Y-12835000D01*
X18679000Y-12795000D02*
X18759000Y-12795000D01*
X18782500Y-13771000D02*
X18782500Y-13851000D01*
X18742500Y-13811000D02*
X18822500Y-13811000D01*
X18782500Y-14533000D02*
X18782500Y-14613000D01*
X18742500Y-14573000D02*
X18822500Y-14573000D01*
X18846000Y-10659500D02*
X18846000Y-10739500D01*
X18806000Y-10699500D02*
X18886000Y-10699500D01*
D15*
X17950720Y-15023920D02*
X17950720Y-14960280D01*
X17887080Y-14960280D01*
X17887080Y-15023920D01*
X17950720Y-15023920D01*
X18204720Y-15023920D02*
X18204720Y-14960280D01*
X18141080Y-14960280D01*
X18141080Y-15023920D01*
X18204720Y-15023920D01*
D16*
X10337000Y-8273000D02*
X10387000Y-8223000D01*
X10337000Y-8173000D01*
X10287000Y-8223000D01*
X10337000Y-8273000D01*
X10337000Y-8527000D02*
X10387000Y-8477000D01*
X10337000Y-8427000D01*
X10287000Y-8477000D01*
X10337000Y-8527000D01*
X10591000Y-8273000D02*
X10641000Y-8223000D01*
X10591000Y-8173000D01*
X10541000Y-8223000D01*
X10591000Y-8273000D01*
X10591000Y-8527000D02*
X10641000Y-8477000D01*
X10591000Y-8427000D01*
X10541000Y-8477000D01*
X10591000Y-8527000D01*
X10845000Y-8273000D02*
X10895000Y-8223000D01*
X10845000Y-8173000D01*
X10795000Y-8223000D01*
X10845000Y-8273000D01*
X10845000Y-8527000D02*
X10895000Y-8477000D01*
X10845000Y-8427000D01*
X10795000Y-8477000D01*
X10845000Y-8527000D01*
X11099000Y-8273000D02*
X11149000Y-8223000D01*
X11099000Y-8173000D01*
X11049000Y-8223000D01*
X11099000Y-8273000D01*
X11099000Y-8527000D02*
X11149000Y-8477000D01*
X11099000Y-8427000D01*
X11049000Y-8477000D01*
X11099000Y-8527000D01*
X11200000Y-14458000D02*
X11250000Y-14408000D01*
X11200000Y-14358000D01*
X11150000Y-14408000D01*
X11200000Y-14458000D01*
X11338500Y-14742000D02*
X11388500Y-14692000D01*
X11338500Y-14642000D01*
X11288500Y-14692000D01*
X11338500Y-14742000D01*
X11353000Y-8273000D02*
X11403000Y-8223000D01*
X11353000Y-8173000D01*
X11303000Y-8223000D01*
X11353000Y-8273000D01*
X11353000Y-8527000D02*
X11403000Y-8477000D01*
X11353000Y-8427000D01*
X11303000Y-8477000D01*
X11353000Y-8527000D01*
X11477000Y-14458000D02*
X11527000Y-14408000D01*
X11477000Y-14358000D01*
X11427000Y-14408000D01*
X11477000Y-14458000D01*
X11607000Y-8273000D02*
X11657000Y-8223000D01*
X11607000Y-8173000D01*
X11557000Y-8223000D01*
X11607000Y-8273000D01*
X11607000Y-8527000D02*
X11657000Y-8477000D01*
X11607000Y-8427000D01*
X11557000Y-8477000D01*
X11607000Y-8527000D01*
X11615500Y-14742000D02*
X11665500Y-14692000D01*
X11615500Y-14642000D01*
X11565500Y-14692000D01*
X11615500Y-14742000D01*
X11754000Y-14458000D02*
X11804000Y-14408000D01*
X11754000Y-14358000D01*
X11704000Y-14408000D01*
X11754000Y-14458000D01*
X11861000Y-8273000D02*
X11911000Y-8223000D01*
X11861000Y-8173000D01*
X11811000Y-8223000D01*
X11861000Y-8273000D01*
X11861000Y-8527000D02*
X11911000Y-8477000D01*
X11861000Y-8427000D01*
X11811000Y-8477000D01*
X11861000Y-8527000D01*
X11892500Y-14742000D02*
X11942500Y-14692000D01*
X11892500Y-14642000D01*
X11842500Y-14692000D01*
X11892500Y-14742000D01*
X12031000Y-14458000D02*
X12081000Y-14408000D01*
X12031000Y-14358000D01*
X11981000Y-14408000D01*
X12031000Y-14458000D01*
X12115000Y-8273000D02*
X12165000Y-8223000D01*
X12115000Y-8173000D01*
X12065000Y-8223000D01*
X12115000Y-8273000D01*
X12115000Y-8527000D02*
X12165000Y-8477000D01*
X12115000Y-8427000D01*
X12065000Y-8477000D01*
X12115000Y-8527000D01*
X12169500Y-14742000D02*
X12219500Y-14692000D01*
X12169500Y-14642000D01*
X12119500Y-14692000D01*
X12169500Y-14742000D01*
X12308000Y-14458000D02*
X12358000Y-14408000D01*
X12308000Y-14358000D01*
X12258000Y-14408000D01*
X12308000Y-14458000D01*
X12369000Y-8273000D02*
X12419000Y-8223000D01*
X12369000Y-8173000D01*
X12319000Y-8223000D01*
X12369000Y-8273000D01*
X12369000Y-8527000D02*
X12419000Y-8477000D01*
X12369000Y-8427000D01*
X12319000Y-8477000D01*
X12369000Y-8527000D01*
X12623000Y-8273000D02*
X12673000Y-8223000D01*
X12623000Y-8173000D01*
X12573000Y-8223000D01*
X12623000Y-8273000D01*
X12623000Y-8527000D02*
X12673000Y-8477000D01*
X12623000Y-8427000D01*
X12573000Y-8477000D01*
X12623000Y-8527000D01*
X12877000Y-8273000D02*
X12927000Y-8223000D01*
X12877000Y-8173000D01*
X12827000Y-8223000D01*
X12877000Y-8273000D01*
X12877000Y-8527000D02*
X12927000Y-8477000D01*
X12877000Y-8427000D01*
X12827000Y-8477000D01*
X12877000Y-8527000D01*
X13131000Y-8273000D02*
X13181000Y-8223000D01*
X13131000Y-8173000D01*
X13081000Y-8223000D01*
X13131000Y-8273000D01*
X13131000Y-8527000D02*
X13181000Y-8477000D01*
X13131000Y-8427000D01*
X13081000Y-8477000D01*
X13131000Y-8527000D01*
X13385000Y-8273000D02*
X13435000Y-8223000D01*
X13385000Y-8173000D01*
X13335000Y-8223000D01*
X13385000Y-8273000D01*
X13385000Y-8527000D02*
X13435000Y-8477000D01*
X13385000Y-8427000D01*
X13335000Y-8477000D01*
X13385000Y-8527000D01*
X13639000Y-8273000D02*
X13689000Y-8223000D01*
X13639000Y-8173000D01*
X13589000Y-8223000D01*
X13639000Y-8273000D01*
X13639000Y-8527000D02*
X13689000Y-8477000D01*
X13639000Y-8427000D01*
X13589000Y-8477000D01*
X13639000Y-8527000D01*
X13893000Y-8273000D02*
X13943000Y-8223000D01*
X13893000Y-8173000D01*
X13843000Y-8223000D01*
X13893000Y-8273000D01*
X13893000Y-8527000D02*
X13943000Y-8477000D01*
X13893000Y-8427000D01*
X13843000Y-8477000D01*
X13893000Y-8527000D01*
X14147000Y-8273000D02*
X14197000Y-8223000D01*
X14147000Y-8173000D01*
X14097000Y-8223000D01*
X14147000Y-8273000D01*
X14147000Y-8527000D02*
X14197000Y-8477000D01*
X14147000Y-8427000D01*
X14097000Y-8477000D01*
X14147000Y-8527000D01*
X14401000Y-8273000D02*
X14451000Y-8223000D01*
X14401000Y-8173000D01*
X14351000Y-8223000D01*
X14401000Y-8273000D01*
X14401000Y-8527000D02*
X14451000Y-8477000D01*
X14401000Y-8427000D01*
X14351000Y-8477000D01*
X14401000Y-8527000D01*
X14655000Y-8273000D02*
X14705000Y-8223000D01*
X14655000Y-8173000D01*
X14605000Y-8223000D01*
X14655000Y-8273000D01*
X14655000Y-8527000D02*
X14705000Y-8477000D01*
X14655000Y-8427000D01*
X14605000Y-8477000D01*
X14655000Y-8527000D01*
X14909000Y-8273000D02*
X14959000Y-8223000D01*
X14909000Y-8173000D01*
X14859000Y-8223000D01*
X14909000Y-8273000D01*
X14909000Y-8527000D02*
X14959000Y-8477000D01*
X14909000Y-8427000D01*
X14859000Y-8477000D01*
X14909000Y-8527000D01*
X15163000Y-8273000D02*
X15213000Y-8223000D01*
X15163000Y-8173000D01*
X15113000Y-8223000D01*
X15163000Y-8273000D01*
X15163000Y-8527000D02*
X15213000Y-8477000D01*
X15163000Y-8427000D01*
X15113000Y-8477000D01*
X15163000Y-8527000D01*
X17011700Y-15270700D02*
X17061700Y-15220700D01*
X17011700Y-15170700D01*
X16961700Y-15220700D01*
X17011700Y-15270700D01*
X17188000Y-8650000D02*
X17238000Y-8600000D01*
X17188000Y-8550000D01*
X17138000Y-8600000D01*
X17188000Y-8650000D01*
X17442000Y-8650000D02*
X17492000Y-8600000D01*
X17442000Y-8550000D01*
X17392000Y-8600000D01*
X17442000Y-8650000D01*
X17461700Y-15270700D02*
X17511700Y-15220700D01*
X17461700Y-15170700D01*
X17411700Y-15220700D01*
X17461700Y-15270700D01*
X17696000Y-8650000D02*
X17746000Y-8600000D01*
X17696000Y-8550000D01*
X17646000Y-8600000D01*
X17696000Y-8650000D01*
X17950000Y-8650000D02*
X18000000Y-8600000D01*
X17950000Y-8550000D01*
X17900000Y-8600000D01*
X17950000Y-8650000D01*
D17*
X16821700Y-14905700D02*
X16951700Y-15035700D01*
X16951700Y-14905700D02*
X16821700Y-15035700D01*
X16951700Y-14970700D02*
G75*
G03*
X16951700Y-14970700I-65000J0D01*
G01*
X17521700Y-14905700D02*
X17651700Y-15035700D01*
X17651700Y-14905700D02*
X17521700Y-15035700D01*
X17651700Y-14970700D02*
G75*
G03*
X17651700Y-14970700I-65000J0D01*
G01*
D18*
X10344000Y-14390000D02*
X10664000Y-14710000D01*
X10664000Y-14390000D02*
X10344000Y-14710000D01*
X10504000Y-14390000D02*
X10504000Y-14710000D01*
X10344000Y-14550000D02*
X10664000Y-14550000D01*
X12844000Y-14390000D02*
X13164000Y-14710000D01*
X13164000Y-14390000D02*
X12844000Y-14710000D01*
X13004000Y-14390000D02*
X13004000Y-14710000D01*
X12844000Y-14550000D02*
X13164000Y-14550000D01*
D11*
X9755119Y-15812976D02*
X9755119Y-15612976D01*
X9802738Y-15612976D01*
X9831310Y-15622500D01*
X9850357Y-15641548D01*
X9859881Y-15660595D01*
X9869405Y-15698690D01*
X9869405Y-15727262D01*
X9859881Y-15765357D01*
X9850357Y-15784405D01*
X9831310Y-15803452D01*
X9802738Y-15812976D01*
X9755119Y-15812976D01*
X9955119Y-15812976D02*
X9955119Y-15679643D01*
X9955119Y-15717738D02*
X9964643Y-15698690D01*
X9974167Y-15689167D01*
X9993214Y-15679643D01*
X10012262Y-15679643D01*
X10078929Y-15812976D02*
X10078929Y-15679643D01*
X10078929Y-15612976D02*
X10069405Y-15622500D01*
X10078929Y-15632024D01*
X10088452Y-15622500D01*
X10078929Y-15612976D01*
X10078929Y-15632024D01*
X10202738Y-15812976D02*
X10183690Y-15803452D01*
X10174167Y-15784405D01*
X10174167Y-15612976D01*
X10307500Y-15812976D02*
X10288452Y-15803452D01*
X10278929Y-15784405D01*
X10278929Y-15612976D01*
X10536071Y-15812976D02*
X10536071Y-15612976D01*
X10602738Y-15755833D01*
X10669405Y-15612976D01*
X10669405Y-15812976D01*
X10850357Y-15812976D02*
X10850357Y-15708214D01*
X10840833Y-15689167D01*
X10821786Y-15679643D01*
X10783690Y-15679643D01*
X10764643Y-15689167D01*
X10850357Y-15803452D02*
X10831310Y-15812976D01*
X10783690Y-15812976D01*
X10764643Y-15803452D01*
X10755119Y-15784405D01*
X10755119Y-15765357D01*
X10764643Y-15746309D01*
X10783690Y-15736786D01*
X10831310Y-15736786D01*
X10850357Y-15727262D01*
X10945595Y-15679643D02*
X10945595Y-15879643D01*
X10945595Y-15689167D02*
X10964643Y-15679643D01*
X11002738Y-15679643D01*
X11021786Y-15689167D01*
X11031310Y-15698690D01*
X11040833Y-15717738D01*
X11040833Y-15774881D01*
X11031310Y-15793928D01*
X11021786Y-15803452D01*
X11002738Y-15812976D01*
X10964643Y-15812976D01*
X10945595Y-15803452D01*
X11126548Y-15793928D02*
X11136071Y-15803452D01*
X11126548Y-15812976D01*
X11117024Y-15803452D01*
X11126548Y-15793928D01*
X11126548Y-15812976D01*
X11126548Y-15689167D02*
X11136071Y-15698690D01*
X11126548Y-15708214D01*
X11117024Y-15698690D01*
X11126548Y-15689167D01*
X11126548Y-15708214D01*
D12*
X9457500Y-16122500D02*
X9497500Y-16162500D01*
X9497500Y-16122500D02*
X9457500Y-16162500D01*
D11*
X9793214Y-16032976D02*
X9812262Y-16032976D01*
X9831310Y-16042500D01*
X9840833Y-16052024D01*
X9850357Y-16071071D01*
X9859881Y-16109167D01*
X9859881Y-16156786D01*
X9850357Y-16194881D01*
X9840833Y-16213928D01*
X9831310Y-16223452D01*
X9812262Y-16232976D01*
X9793214Y-16232976D01*
X9774167Y-16223452D01*
X9764643Y-16213928D01*
X9755119Y-16194881D01*
X9745595Y-16156786D01*
X9745595Y-16109167D01*
X9755119Y-16071071D01*
X9764643Y-16052024D01*
X9774167Y-16042500D01*
X9793214Y-16032976D01*
X9945595Y-16213928D02*
X9955119Y-16223452D01*
X9945595Y-16232976D01*
X9936071Y-16223452D01*
X9945595Y-16213928D01*
X9945595Y-16232976D01*
X10126548Y-16099643D02*
X10126548Y-16232976D01*
X10078929Y-16023452D02*
X10031310Y-16166309D01*
X10155119Y-16166309D01*
X10269405Y-16032976D02*
X10288452Y-16032976D01*
X10307500Y-16042500D01*
X10317024Y-16052024D01*
X10326548Y-16071071D01*
X10336071Y-16109167D01*
X10336071Y-16156786D01*
X10326548Y-16194881D01*
X10317024Y-16213928D01*
X10307500Y-16223452D01*
X10288452Y-16232976D01*
X10269405Y-16232976D01*
X10250357Y-16223452D01*
X10240833Y-16213928D01*
X10231310Y-16194881D01*
X10221786Y-16156786D01*
X10221786Y-16109167D01*
X10231310Y-16071071D01*
X10240833Y-16052024D01*
X10250357Y-16042500D01*
X10269405Y-16032976D01*
X10459881Y-16032976D02*
X10478929Y-16032976D01*
X10497976Y-16042500D01*
X10507500Y-16052024D01*
X10517024Y-16071071D01*
X10526548Y-16109167D01*
X10526548Y-16156786D01*
X10517024Y-16194881D01*
X10507500Y-16213928D01*
X10497976Y-16223452D01*
X10478929Y-16232976D01*
X10459881Y-16232976D01*
X10440833Y-16223452D01*
X10431310Y-16213928D01*
X10421786Y-16194881D01*
X10412262Y-16156786D01*
X10412262Y-16109167D01*
X10421786Y-16071071D01*
X10431310Y-16052024D01*
X10440833Y-16042500D01*
X10459881Y-16032976D01*
X10612262Y-16232976D02*
X10612262Y-16099643D01*
X10612262Y-16118690D02*
X10621786Y-16109167D01*
X10640833Y-16099643D01*
X10669405Y-16099643D01*
X10688452Y-16109167D01*
X10697976Y-16128214D01*
X10697976Y-16232976D01*
X10697976Y-16128214D02*
X10707500Y-16109167D01*
X10726548Y-16099643D01*
X10755119Y-16099643D01*
X10774167Y-16109167D01*
X10783690Y-16128214D01*
X10783690Y-16232976D01*
X10878929Y-16232976D02*
X10878929Y-16099643D01*
X10878929Y-16118690D02*
X10888452Y-16109167D01*
X10907500Y-16099643D01*
X10936071Y-16099643D01*
X10955119Y-16109167D01*
X10964643Y-16128214D01*
X10964643Y-16232976D01*
X10964643Y-16128214D02*
X10974167Y-16109167D01*
X10993214Y-16099643D01*
X11021786Y-16099643D01*
X11040833Y-16109167D01*
X11050357Y-16128214D01*
X11050357Y-16232976D01*
X11440833Y-16023452D02*
X11269405Y-16280595D01*
X11697976Y-16032976D02*
X11717024Y-16032976D01*
X11736071Y-16042500D01*
X11745595Y-16052024D01*
X11755119Y-16071071D01*
X11764643Y-16109167D01*
X11764643Y-16156786D01*
X11755119Y-16194881D01*
X11745595Y-16213928D01*
X11736071Y-16223452D01*
X11717024Y-16232976D01*
X11697976Y-16232976D01*
X11678928Y-16223452D01*
X11669405Y-16213928D01*
X11659881Y-16194881D01*
X11650357Y-16156786D01*
X11650357Y-16109167D01*
X11659881Y-16071071D01*
X11669405Y-16052024D01*
X11678928Y-16042500D01*
X11697976Y-16032976D01*
X11850357Y-16213928D02*
X11859881Y-16223452D01*
X11850357Y-16232976D01*
X11840833Y-16223452D01*
X11850357Y-16213928D01*
X11850357Y-16232976D01*
X11983690Y-16032976D02*
X12002738Y-16032976D01*
X12021786Y-16042500D01*
X12031309Y-16052024D01*
X12040833Y-16071071D01*
X12050357Y-16109167D01*
X12050357Y-16156786D01*
X12040833Y-16194881D01*
X12031309Y-16213928D01*
X12021786Y-16223452D01*
X12002738Y-16232976D01*
X11983690Y-16232976D01*
X11964643Y-16223452D01*
X11955119Y-16213928D01*
X11945595Y-16194881D01*
X11936071Y-16156786D01*
X11936071Y-16109167D01*
X11945595Y-16071071D01*
X11955119Y-16052024D01*
X11964643Y-16042500D01*
X11983690Y-16032976D01*
X12240833Y-16232976D02*
X12126548Y-16232976D01*
X12183690Y-16232976D02*
X12183690Y-16032976D01*
X12164643Y-16061548D01*
X12145595Y-16080595D01*
X12126548Y-16090119D01*
X12421786Y-16032976D02*
X12326548Y-16032976D01*
X12317024Y-16128214D01*
X12326548Y-16118690D01*
X12345595Y-16109167D01*
X12393214Y-16109167D01*
X12412262Y-16118690D01*
X12421786Y-16128214D01*
X12431309Y-16147262D01*
X12431309Y-16194881D01*
X12421786Y-16213928D01*
X12412262Y-16223452D01*
X12393214Y-16232976D01*
X12345595Y-16232976D01*
X12326548Y-16223452D01*
X12317024Y-16213928D01*
X12497976Y-16032976D02*
X12631309Y-16032976D01*
X12545595Y-16232976D01*
X12697976Y-16032976D02*
X12697976Y-16071071D01*
X12774167Y-16032976D02*
X12774167Y-16071071D01*
X13069405Y-16309167D02*
X13059881Y-16299643D01*
X13040833Y-16271071D01*
X13031309Y-16252024D01*
X13021786Y-16223452D01*
X13012262Y-16175833D01*
X13012262Y-16137738D01*
X13021786Y-16090119D01*
X13031309Y-16061548D01*
X13040833Y-16042500D01*
X13059881Y-16013928D01*
X13069405Y-16004405D01*
X13250357Y-16232976D02*
X13136071Y-16232976D01*
X13193214Y-16232976D02*
X13193214Y-16032976D01*
X13174167Y-16061548D01*
X13155119Y-16080595D01*
X13136071Y-16090119D01*
X13326548Y-16052024D02*
X13336071Y-16042500D01*
X13355119Y-16032976D01*
X13402738Y-16032976D01*
X13421786Y-16042500D01*
X13431309Y-16052024D01*
X13440833Y-16071071D01*
X13440833Y-16090119D01*
X13431309Y-16118690D01*
X13317024Y-16232976D01*
X13440833Y-16232976D01*
X13612262Y-16099643D02*
X13612262Y-16232976D01*
X13564643Y-16023452D02*
X13517024Y-16166309D01*
X13640833Y-16166309D01*
X13869405Y-16232976D02*
X13869405Y-16032976D01*
X13955119Y-16232976D02*
X13955119Y-16128214D01*
X13945595Y-16109167D01*
X13926548Y-16099643D01*
X13897976Y-16099643D01*
X13878928Y-16109167D01*
X13869405Y-16118690D01*
X14078928Y-16232976D02*
X14059881Y-16223452D01*
X14050357Y-16213928D01*
X14040833Y-16194881D01*
X14040833Y-16137738D01*
X14050357Y-16118690D01*
X14059881Y-16109167D01*
X14078928Y-16099643D01*
X14107500Y-16099643D01*
X14126548Y-16109167D01*
X14136071Y-16118690D01*
X14145595Y-16137738D01*
X14145595Y-16194881D01*
X14136071Y-16213928D01*
X14126548Y-16223452D01*
X14107500Y-16232976D01*
X14078928Y-16232976D01*
X14259881Y-16232976D02*
X14240833Y-16223452D01*
X14231309Y-16204405D01*
X14231309Y-16032976D01*
X14412262Y-16223452D02*
X14393214Y-16232976D01*
X14355119Y-16232976D01*
X14336071Y-16223452D01*
X14326548Y-16204405D01*
X14326548Y-16128214D01*
X14336071Y-16109167D01*
X14355119Y-16099643D01*
X14393214Y-16099643D01*
X14412262Y-16109167D01*
X14421786Y-16128214D01*
X14421786Y-16147262D01*
X14326548Y-16166309D01*
X14497976Y-16223452D02*
X14517024Y-16232976D01*
X14555119Y-16232976D01*
X14574167Y-16223452D01*
X14583690Y-16204405D01*
X14583690Y-16194881D01*
X14574167Y-16175833D01*
X14555119Y-16166309D01*
X14526548Y-16166309D01*
X14507500Y-16156786D01*
X14497976Y-16137738D01*
X14497976Y-16128214D01*
X14507500Y-16109167D01*
X14526548Y-16099643D01*
X14555119Y-16099643D01*
X14574167Y-16109167D01*
X14650357Y-16309167D02*
X14659881Y-16299643D01*
X14678928Y-16271071D01*
X14688452Y-16252024D01*
X14697976Y-16223452D01*
X14707500Y-16175833D01*
X14707500Y-16137738D01*
X14697976Y-16090119D01*
X14688452Y-16061548D01*
X14678928Y-16042500D01*
X14659881Y-16013928D01*
X14650357Y-16004405D01*
D13*
X9497500Y-16406500D02*
G75*
G03*
X9497500Y-16406500I-30000J0D01*
G01*
D11*
X9793214Y-16296976D02*
X9812262Y-16296976D01*
X9831310Y-16306500D01*
X9840833Y-16316024D01*
X9850357Y-16335071D01*
X9859881Y-16373167D01*
X9859881Y-16420786D01*
X9850357Y-16458881D01*
X9840833Y-16477928D01*
X9831310Y-16487452D01*
X9812262Y-16496976D01*
X9793214Y-16496976D01*
X9774167Y-16487452D01*
X9764643Y-16477928D01*
X9755119Y-16458881D01*
X9745595Y-16420786D01*
X9745595Y-16373167D01*
X9755119Y-16335071D01*
X9764643Y-16316024D01*
X9774167Y-16306500D01*
X9793214Y-16296976D01*
X9945595Y-16477928D02*
X9955119Y-16487452D01*
X9945595Y-16496976D01*
X9936071Y-16487452D01*
X9945595Y-16477928D01*
X9945595Y-16496976D01*
X10126548Y-16296976D02*
X10088452Y-16296976D01*
X10069405Y-16306500D01*
X10059881Y-16316024D01*
X10040833Y-16344595D01*
X10031310Y-16382690D01*
X10031310Y-16458881D01*
X10040833Y-16477928D01*
X10050357Y-16487452D01*
X10069405Y-16496976D01*
X10107500Y-16496976D01*
X10126548Y-16487452D01*
X10136071Y-16477928D01*
X10145595Y-16458881D01*
X10145595Y-16411262D01*
X10136071Y-16392214D01*
X10126548Y-16382690D01*
X10107500Y-16373167D01*
X10069405Y-16373167D01*
X10050357Y-16382690D01*
X10040833Y-16392214D01*
X10031310Y-16411262D01*
X10269405Y-16296976D02*
X10288452Y-16296976D01*
X10307500Y-16306500D01*
X10317024Y-16316024D01*
X10326548Y-16335071D01*
X10336071Y-16373167D01*
X10336071Y-16420786D01*
X10326548Y-16458881D01*
X10317024Y-16477928D01*
X10307500Y-16487452D01*
X10288452Y-16496976D01*
X10269405Y-16496976D01*
X10250357Y-16487452D01*
X10240833Y-16477928D01*
X10231310Y-16458881D01*
X10221786Y-16420786D01*
X10221786Y-16373167D01*
X10231310Y-16335071D01*
X10240833Y-16316024D01*
X10250357Y-16306500D01*
X10269405Y-16296976D01*
X10459881Y-16296976D02*
X10478929Y-16296976D01*
X10497976Y-16306500D01*
X10507500Y-16316024D01*
X10517024Y-16335071D01*
X10526548Y-16373167D01*
X10526548Y-16420786D01*
X10517024Y-16458881D01*
X10507500Y-16477928D01*
X10497976Y-16487452D01*
X10478929Y-16496976D01*
X10459881Y-16496976D01*
X10440833Y-16487452D01*
X10431310Y-16477928D01*
X10421786Y-16458881D01*
X10412262Y-16420786D01*
X10412262Y-16373167D01*
X10421786Y-16335071D01*
X10431310Y-16316024D01*
X10440833Y-16306500D01*
X10459881Y-16296976D01*
X10612262Y-16496976D02*
X10612262Y-16363643D01*
X10612262Y-16382690D02*
X10621786Y-16373167D01*
X10640833Y-16363643D01*
X10669405Y-16363643D01*
X10688452Y-16373167D01*
X10697976Y-16392214D01*
X10697976Y-16496976D01*
X10697976Y-16392214D02*
X10707500Y-16373167D01*
X10726548Y-16363643D01*
X10755119Y-16363643D01*
X10774167Y-16373167D01*
X10783690Y-16392214D01*
X10783690Y-16496976D01*
X10878929Y-16496976D02*
X10878929Y-16363643D01*
X10878929Y-16382690D02*
X10888452Y-16373167D01*
X10907500Y-16363643D01*
X10936071Y-16363643D01*
X10955119Y-16373167D01*
X10964643Y-16392214D01*
X10964643Y-16496976D01*
X10964643Y-16392214D02*
X10974167Y-16373167D01*
X10993214Y-16363643D01*
X11021786Y-16363643D01*
X11040833Y-16373167D01*
X11050357Y-16392214D01*
X11050357Y-16496976D01*
X11440833Y-16287452D02*
X11269405Y-16544595D01*
X11697976Y-16296976D02*
X11717024Y-16296976D01*
X11736071Y-16306500D01*
X11745595Y-16316024D01*
X11755119Y-16335071D01*
X11764643Y-16373167D01*
X11764643Y-16420786D01*
X11755119Y-16458881D01*
X11745595Y-16477928D01*
X11736071Y-16487452D01*
X11717024Y-16496976D01*
X11697976Y-16496976D01*
X11678928Y-16487452D01*
X11669405Y-16477928D01*
X11659881Y-16458881D01*
X11650357Y-16420786D01*
X11650357Y-16373167D01*
X11659881Y-16335071D01*
X11669405Y-16316024D01*
X11678928Y-16306500D01*
X11697976Y-16296976D01*
X11850357Y-16477928D02*
X11859881Y-16487452D01*
X11850357Y-16496976D01*
X11840833Y-16487452D01*
X11850357Y-16477928D01*
X11850357Y-16496976D01*
X11983690Y-16296976D02*
X12002738Y-16296976D01*
X12021786Y-16306500D01*
X12031309Y-16316024D01*
X12040833Y-16335071D01*
X12050357Y-16373167D01*
X12050357Y-16420786D01*
X12040833Y-16458881D01*
X12031309Y-16477928D01*
X12021786Y-16487452D01*
X12002738Y-16496976D01*
X11983690Y-16496976D01*
X11964643Y-16487452D01*
X11955119Y-16477928D01*
X11945595Y-16458881D01*
X11936071Y-16420786D01*
X11936071Y-16373167D01*
X11945595Y-16335071D01*
X11955119Y-16316024D01*
X11964643Y-16306500D01*
X11983690Y-16296976D01*
X12126548Y-16316024D02*
X12136071Y-16306500D01*
X12155119Y-16296976D01*
X12202738Y-16296976D01*
X12221786Y-16306500D01*
X12231309Y-16316024D01*
X12240833Y-16335071D01*
X12240833Y-16354119D01*
X12231309Y-16382690D01*
X12117024Y-16496976D01*
X12240833Y-16496976D01*
X12307500Y-16296976D02*
X12431309Y-16296976D01*
X12364643Y-16373167D01*
X12393214Y-16373167D01*
X12412262Y-16382690D01*
X12421786Y-16392214D01*
X12431309Y-16411262D01*
X12431309Y-16458881D01*
X12421786Y-16477928D01*
X12412262Y-16487452D01*
X12393214Y-16496976D01*
X12336071Y-16496976D01*
X12317024Y-16487452D01*
X12307500Y-16477928D01*
X12602738Y-16296976D02*
X12564643Y-16296976D01*
X12545595Y-16306500D01*
X12536071Y-16316024D01*
X12517024Y-16344595D01*
X12507500Y-16382690D01*
X12507500Y-16458881D01*
X12517024Y-16477928D01*
X12526548Y-16487452D01*
X12545595Y-16496976D01*
X12583690Y-16496976D01*
X12602738Y-16487452D01*
X12612262Y-16477928D01*
X12621786Y-16458881D01*
X12621786Y-16411262D01*
X12612262Y-16392214D01*
X12602738Y-16382690D01*
X12583690Y-16373167D01*
X12545595Y-16373167D01*
X12526548Y-16382690D01*
X12517024Y-16392214D01*
X12507500Y-16411262D01*
X12697976Y-16296976D02*
X12697976Y-16335071D01*
X12774167Y-16296976D02*
X12774167Y-16335071D01*
X13069405Y-16573167D02*
X13059881Y-16563643D01*
X13040833Y-16535071D01*
X13031309Y-16516024D01*
X13021786Y-16487452D01*
X13012262Y-16439833D01*
X13012262Y-16401738D01*
X13021786Y-16354119D01*
X13031309Y-16325548D01*
X13040833Y-16306500D01*
X13059881Y-16277928D01*
X13069405Y-16268405D01*
X13250357Y-16496976D02*
X13136071Y-16496976D01*
X13193214Y-16496976D02*
X13193214Y-16296976D01*
X13174167Y-16325548D01*
X13155119Y-16344595D01*
X13136071Y-16354119D01*
X13421786Y-16363643D02*
X13421786Y-16496976D01*
X13374167Y-16287452D02*
X13326548Y-16430309D01*
X13450357Y-16430309D01*
X13678928Y-16496976D02*
X13678928Y-16296976D01*
X13764643Y-16496976D02*
X13764643Y-16392214D01*
X13755119Y-16373167D01*
X13736071Y-16363643D01*
X13707500Y-16363643D01*
X13688452Y-16373167D01*
X13678928Y-16382690D01*
X13888452Y-16496976D02*
X13869405Y-16487452D01*
X13859881Y-16477928D01*
X13850357Y-16458881D01*
X13850357Y-16401738D01*
X13859881Y-16382690D01*
X13869405Y-16373167D01*
X13888452Y-16363643D01*
X13917024Y-16363643D01*
X13936071Y-16373167D01*
X13945595Y-16382690D01*
X13955119Y-16401738D01*
X13955119Y-16458881D01*
X13945595Y-16477928D01*
X13936071Y-16487452D01*
X13917024Y-16496976D01*
X13888452Y-16496976D01*
X14069405Y-16496976D02*
X14050357Y-16487452D01*
X14040833Y-16468405D01*
X14040833Y-16296976D01*
X14221786Y-16487452D02*
X14202738Y-16496976D01*
X14164643Y-16496976D01*
X14145595Y-16487452D01*
X14136071Y-16468405D01*
X14136071Y-16392214D01*
X14145595Y-16373167D01*
X14164643Y-16363643D01*
X14202738Y-16363643D01*
X14221786Y-16373167D01*
X14231309Y-16392214D01*
X14231309Y-16411262D01*
X14136071Y-16430309D01*
X14307500Y-16487452D02*
X14326548Y-16496976D01*
X14364643Y-16496976D01*
X14383690Y-16487452D01*
X14393214Y-16468405D01*
X14393214Y-16458881D01*
X14383690Y-16439833D01*
X14364643Y-16430309D01*
X14336071Y-16430309D01*
X14317024Y-16420786D01*
X14307500Y-16401738D01*
X14307500Y-16392214D01*
X14317024Y-16373167D01*
X14336071Y-16363643D01*
X14364643Y-16363643D01*
X14383690Y-16373167D01*
X14459881Y-16573167D02*
X14469405Y-16563643D01*
X14488452Y-16535071D01*
X14497976Y-16516024D01*
X14507500Y-16487452D01*
X14517024Y-16439833D01*
X14517024Y-16401738D01*
X14507500Y-16354119D01*
X14497976Y-16325548D01*
X14488452Y-16306500D01*
X14469405Y-16277928D01*
X14459881Y-16268405D01*
D14*
X9457500Y-16630500D02*
X9457500Y-16710500D01*
X9417500Y-16670500D02*
X9497500Y-16670500D01*
D11*
X9793214Y-16560976D02*
X9812262Y-16560976D01*
X9831310Y-16570500D01*
X9840833Y-16580024D01*
X9850357Y-16599071D01*
X9859881Y-16637167D01*
X9859881Y-16684786D01*
X9850357Y-16722881D01*
X9840833Y-16741928D01*
X9831310Y-16751452D01*
X9812262Y-16760976D01*
X9793214Y-16760976D01*
X9774167Y-16751452D01*
X9764643Y-16741928D01*
X9755119Y-16722881D01*
X9745595Y-16684786D01*
X9745595Y-16637167D01*
X9755119Y-16599071D01*
X9764643Y-16580024D01*
X9774167Y-16570500D01*
X9793214Y-16560976D01*
X9945595Y-16741928D02*
X9955119Y-16751452D01*
X9945595Y-16760976D01*
X9936071Y-16751452D01*
X9945595Y-16741928D01*
X9945595Y-16760976D01*
X10069405Y-16646690D02*
X10050357Y-16637167D01*
X10040833Y-16627643D01*
X10031310Y-16608595D01*
X10031310Y-16599071D01*
X10040833Y-16580024D01*
X10050357Y-16570500D01*
X10069405Y-16560976D01*
X10107500Y-16560976D01*
X10126548Y-16570500D01*
X10136071Y-16580024D01*
X10145595Y-16599071D01*
X10145595Y-16608595D01*
X10136071Y-16627643D01*
X10126548Y-16637167D01*
X10107500Y-16646690D01*
X10069405Y-16646690D01*
X10050357Y-16656214D01*
X10040833Y-16665738D01*
X10031310Y-16684786D01*
X10031310Y-16722881D01*
X10040833Y-16741928D01*
X10050357Y-16751452D01*
X10069405Y-16760976D01*
X10107500Y-16760976D01*
X10126548Y-16751452D01*
X10136071Y-16741928D01*
X10145595Y-16722881D01*
X10145595Y-16684786D01*
X10136071Y-16665738D01*
X10126548Y-16656214D01*
X10107500Y-16646690D01*
X10269405Y-16560976D02*
X10288452Y-16560976D01*
X10307500Y-16570500D01*
X10317024Y-16580024D01*
X10326548Y-16599071D01*
X10336071Y-16637167D01*
X10336071Y-16684786D01*
X10326548Y-16722881D01*
X10317024Y-16741928D01*
X10307500Y-16751452D01*
X10288452Y-16760976D01*
X10269405Y-16760976D01*
X10250357Y-16751452D01*
X10240833Y-16741928D01*
X10231310Y-16722881D01*
X10221786Y-16684786D01*
X10221786Y-16637167D01*
X10231310Y-16599071D01*
X10240833Y-16580024D01*
X10250357Y-16570500D01*
X10269405Y-16560976D01*
X10459881Y-16560976D02*
X10478929Y-16560976D01*
X10497976Y-16570500D01*
X10507500Y-16580024D01*
X10517024Y-16599071D01*
X10526548Y-16637167D01*
X10526548Y-16684786D01*
X10517024Y-16722881D01*
X10507500Y-16741928D01*
X10497976Y-16751452D01*
X10478929Y-16760976D01*
X10459881Y-16760976D01*
X10440833Y-16751452D01*
X10431310Y-16741928D01*
X10421786Y-16722881D01*
X10412262Y-16684786D01*
X10412262Y-16637167D01*
X10421786Y-16599071D01*
X10431310Y-16580024D01*
X10440833Y-16570500D01*
X10459881Y-16560976D01*
X10612262Y-16760976D02*
X10612262Y-16627643D01*
X10612262Y-16646690D02*
X10621786Y-16637167D01*
X10640833Y-16627643D01*
X10669405Y-16627643D01*
X10688452Y-16637167D01*
X10697976Y-16656214D01*
X10697976Y-16760976D01*
X10697976Y-16656214D02*
X10707500Y-16637167D01*
X10726548Y-16627643D01*
X10755119Y-16627643D01*
X10774167Y-16637167D01*
X10783690Y-16656214D01*
X10783690Y-16760976D01*
X10878929Y-16760976D02*
X10878929Y-16627643D01*
X10878929Y-16646690D02*
X10888452Y-16637167D01*
X10907500Y-16627643D01*
X10936071Y-16627643D01*
X10955119Y-16637167D01*
X10964643Y-16656214D01*
X10964643Y-16760976D01*
X10964643Y-16656214D02*
X10974167Y-16637167D01*
X10993214Y-16627643D01*
X11021786Y-16627643D01*
X11040833Y-16637167D01*
X11050357Y-16656214D01*
X11050357Y-16760976D01*
X11440833Y-16551452D02*
X11269405Y-16808595D01*
X11697976Y-16560976D02*
X11717024Y-16560976D01*
X11736071Y-16570500D01*
X11745595Y-16580024D01*
X11755119Y-16599071D01*
X11764643Y-16637167D01*
X11764643Y-16684786D01*
X11755119Y-16722881D01*
X11745595Y-16741928D01*
X11736071Y-16751452D01*
X11717024Y-16760976D01*
X11697976Y-16760976D01*
X11678928Y-16751452D01*
X11669405Y-16741928D01*
X11659881Y-16722881D01*
X11650357Y-16684786D01*
X11650357Y-16637167D01*
X11659881Y-16599071D01*
X11669405Y-16580024D01*
X11678928Y-16570500D01*
X11697976Y-16560976D01*
X11850357Y-16741928D02*
X11859881Y-16751452D01*
X11850357Y-16760976D01*
X11840833Y-16751452D01*
X11850357Y-16741928D01*
X11850357Y-16760976D01*
X11983690Y-16560976D02*
X12002738Y-16560976D01*
X12021786Y-16570500D01*
X12031309Y-16580024D01*
X12040833Y-16599071D01*
X12050357Y-16637167D01*
X12050357Y-16684786D01*
X12040833Y-16722881D01*
X12031309Y-16741928D01*
X12021786Y-16751452D01*
X12002738Y-16760976D01*
X11983690Y-16760976D01*
X11964643Y-16751452D01*
X11955119Y-16741928D01*
X11945595Y-16722881D01*
X11936071Y-16684786D01*
X11936071Y-16637167D01*
X11945595Y-16599071D01*
X11955119Y-16580024D01*
X11964643Y-16570500D01*
X11983690Y-16560976D01*
X12117024Y-16560976D02*
X12240833Y-16560976D01*
X12174167Y-16637167D01*
X12202738Y-16637167D01*
X12221786Y-16646690D01*
X12231309Y-16656214D01*
X12240833Y-16675262D01*
X12240833Y-16722881D01*
X12231309Y-16741928D01*
X12221786Y-16751452D01*
X12202738Y-16760976D01*
X12145595Y-16760976D01*
X12126548Y-16751452D01*
X12117024Y-16741928D01*
X12431309Y-16760976D02*
X12317024Y-16760976D01*
X12374167Y-16760976D02*
X12374167Y-16560976D01*
X12355119Y-16589548D01*
X12336071Y-16608595D01*
X12317024Y-16618119D01*
X12612262Y-16560976D02*
X12517024Y-16560976D01*
X12507500Y-16656214D01*
X12517024Y-16646690D01*
X12536071Y-16637167D01*
X12583690Y-16637167D01*
X12602738Y-16646690D01*
X12612262Y-16656214D01*
X12621786Y-16675262D01*
X12621786Y-16722881D01*
X12612262Y-16741928D01*
X12602738Y-16751452D01*
X12583690Y-16760976D01*
X12536071Y-16760976D01*
X12517024Y-16751452D01*
X12507500Y-16741928D01*
X12697976Y-16560976D02*
X12697976Y-16599071D01*
X12774167Y-16560976D02*
X12774167Y-16599071D01*
X13069405Y-16837167D02*
X13059881Y-16827643D01*
X13040833Y-16799071D01*
X13031309Y-16780024D01*
X13021786Y-16751452D01*
X13012262Y-16703833D01*
X13012262Y-16665738D01*
X13021786Y-16618119D01*
X13031309Y-16589548D01*
X13040833Y-16570500D01*
X13059881Y-16541928D01*
X13069405Y-16532405D01*
X13136071Y-16580024D02*
X13145595Y-16570500D01*
X13164643Y-16560976D01*
X13212262Y-16560976D01*
X13231309Y-16570500D01*
X13240833Y-16580024D01*
X13250357Y-16599071D01*
X13250357Y-16618119D01*
X13240833Y-16646690D01*
X13126548Y-16760976D01*
X13250357Y-16760976D01*
X13421786Y-16560976D02*
X13383690Y-16560976D01*
X13364643Y-16570500D01*
X13355119Y-16580024D01*
X13336071Y-16608595D01*
X13326548Y-16646690D01*
X13326548Y-16722881D01*
X13336071Y-16741928D01*
X13345595Y-16751452D01*
X13364643Y-16760976D01*
X13402738Y-16760976D01*
X13421786Y-16751452D01*
X13431309Y-16741928D01*
X13440833Y-16722881D01*
X13440833Y-16675262D01*
X13431309Y-16656214D01*
X13421786Y-16646690D01*
X13402738Y-16637167D01*
X13364643Y-16637167D01*
X13345595Y-16646690D01*
X13336071Y-16656214D01*
X13326548Y-16675262D01*
X13507500Y-16560976D02*
X13631309Y-16560976D01*
X13564643Y-16637167D01*
X13593214Y-16637167D01*
X13612262Y-16646690D01*
X13621786Y-16656214D01*
X13631309Y-16675262D01*
X13631309Y-16722881D01*
X13621786Y-16741928D01*
X13612262Y-16751452D01*
X13593214Y-16760976D01*
X13536071Y-16760976D01*
X13517024Y-16751452D01*
X13507500Y-16741928D01*
X13869405Y-16760976D02*
X13869405Y-16560976D01*
X13955119Y-16760976D02*
X13955119Y-16656214D01*
X13945595Y-16637167D01*
X13926548Y-16627643D01*
X13897976Y-16627643D01*
X13878928Y-16637167D01*
X13869405Y-16646690D01*
X14078928Y-16760976D02*
X14059881Y-16751452D01*
X14050357Y-16741928D01*
X14040833Y-16722881D01*
X14040833Y-16665738D01*
X14050357Y-16646690D01*
X14059881Y-16637167D01*
X14078928Y-16627643D01*
X14107500Y-16627643D01*
X14126548Y-16637167D01*
X14136071Y-16646690D01*
X14145595Y-16665738D01*
X14145595Y-16722881D01*
X14136071Y-16741928D01*
X14126548Y-16751452D01*
X14107500Y-16760976D01*
X14078928Y-16760976D01*
X14259881Y-16760976D02*
X14240833Y-16751452D01*
X14231309Y-16732405D01*
X14231309Y-16560976D01*
X14412262Y-16751452D02*
X14393214Y-16760976D01*
X14355119Y-16760976D01*
X14336071Y-16751452D01*
X14326548Y-16732405D01*
X14326548Y-16656214D01*
X14336071Y-16637167D01*
X14355119Y-16627643D01*
X14393214Y-16627643D01*
X14412262Y-16637167D01*
X14421786Y-16656214D01*
X14421786Y-16675262D01*
X14326548Y-16694309D01*
X14497976Y-16751452D02*
X14517024Y-16760976D01*
X14555119Y-16760976D01*
X14574167Y-16751452D01*
X14583690Y-16732405D01*
X14583690Y-16722881D01*
X14574167Y-16703833D01*
X14555119Y-16694309D01*
X14526548Y-16694309D01*
X14507500Y-16684786D01*
X14497976Y-16665738D01*
X14497976Y-16656214D01*
X14507500Y-16637167D01*
X14526548Y-16627643D01*
X14555119Y-16627643D01*
X14574167Y-16637167D01*
X14650357Y-16837167D02*
X14659881Y-16827643D01*
X14678928Y-16799071D01*
X14688452Y-16780024D01*
X14697976Y-16751452D01*
X14707500Y-16703833D01*
X14707500Y-16665738D01*
X14697976Y-16618119D01*
X14688452Y-16589548D01*
X14678928Y-16570500D01*
X14659881Y-16541928D01*
X14650357Y-16532405D01*
D15*
X9484320Y-16966320D02*
X9484320Y-16902680D01*
X9420680Y-16902680D01*
X9420680Y-16966320D01*
X9484320Y-16966320D01*
D11*
X9793214Y-16824976D02*
X9812262Y-16824976D01*
X9831310Y-16834500D01*
X9840833Y-16844024D01*
X9850357Y-16863071D01*
X9859881Y-16901167D01*
X9859881Y-16948786D01*
X9850357Y-16986881D01*
X9840833Y-17005929D01*
X9831310Y-17015452D01*
X9812262Y-17024976D01*
X9793214Y-17024976D01*
X9774167Y-17015452D01*
X9764643Y-17005929D01*
X9755119Y-16986881D01*
X9745595Y-16948786D01*
X9745595Y-16901167D01*
X9755119Y-16863071D01*
X9764643Y-16844024D01*
X9774167Y-16834500D01*
X9793214Y-16824976D01*
X9945595Y-17005929D02*
X9955119Y-17015452D01*
X9945595Y-17024976D01*
X9936071Y-17015452D01*
X9945595Y-17005929D01*
X9945595Y-17024976D01*
X10050357Y-17024976D02*
X10088452Y-17024976D01*
X10107500Y-17015452D01*
X10117024Y-17005929D01*
X10136071Y-16977357D01*
X10145595Y-16939262D01*
X10145595Y-16863071D01*
X10136071Y-16844024D01*
X10126548Y-16834500D01*
X10107500Y-16824976D01*
X10069405Y-16824976D01*
X10050357Y-16834500D01*
X10040833Y-16844024D01*
X10031310Y-16863071D01*
X10031310Y-16910690D01*
X10040833Y-16929738D01*
X10050357Y-16939262D01*
X10069405Y-16948786D01*
X10107500Y-16948786D01*
X10126548Y-16939262D01*
X10136071Y-16929738D01*
X10145595Y-16910690D01*
X10269405Y-16824976D02*
X10288452Y-16824976D01*
X10307500Y-16834500D01*
X10317024Y-16844024D01*
X10326548Y-16863071D01*
X10336071Y-16901167D01*
X10336071Y-16948786D01*
X10326548Y-16986881D01*
X10317024Y-17005929D01*
X10307500Y-17015452D01*
X10288452Y-17024976D01*
X10269405Y-17024976D01*
X10250357Y-17015452D01*
X10240833Y-17005929D01*
X10231310Y-16986881D01*
X10221786Y-16948786D01*
X10221786Y-16901167D01*
X10231310Y-16863071D01*
X10240833Y-16844024D01*
X10250357Y-16834500D01*
X10269405Y-16824976D01*
X10459881Y-16824976D02*
X10478929Y-16824976D01*
X10497976Y-16834500D01*
X10507500Y-16844024D01*
X10517024Y-16863071D01*
X10526548Y-16901167D01*
X10526548Y-16948786D01*
X10517024Y-16986881D01*
X10507500Y-17005929D01*
X10497976Y-17015452D01*
X10478929Y-17024976D01*
X10459881Y-17024976D01*
X10440833Y-17015452D01*
X10431310Y-17005929D01*
X10421786Y-16986881D01*
X10412262Y-16948786D01*
X10412262Y-16901167D01*
X10421786Y-16863071D01*
X10431310Y-16844024D01*
X10440833Y-16834500D01*
X10459881Y-16824976D01*
X10612262Y-17024976D02*
X10612262Y-16891643D01*
X10612262Y-16910690D02*
X10621786Y-16901167D01*
X10640833Y-16891643D01*
X10669405Y-16891643D01*
X10688452Y-16901167D01*
X10697976Y-16920214D01*
X10697976Y-17024976D01*
X10697976Y-16920214D02*
X10707500Y-16901167D01*
X10726548Y-16891643D01*
X10755119Y-16891643D01*
X10774167Y-16901167D01*
X10783690Y-16920214D01*
X10783690Y-17024976D01*
X10878929Y-17024976D02*
X10878929Y-16891643D01*
X10878929Y-16910690D02*
X10888452Y-16901167D01*
X10907500Y-16891643D01*
X10936071Y-16891643D01*
X10955119Y-16901167D01*
X10964643Y-16920214D01*
X10964643Y-17024976D01*
X10964643Y-16920214D02*
X10974167Y-16901167D01*
X10993214Y-16891643D01*
X11021786Y-16891643D01*
X11040833Y-16901167D01*
X11050357Y-16920214D01*
X11050357Y-17024976D01*
X11440833Y-16815452D02*
X11269405Y-17072595D01*
X11697976Y-16824976D02*
X11717024Y-16824976D01*
X11736071Y-16834500D01*
X11745595Y-16844024D01*
X11755119Y-16863071D01*
X11764643Y-16901167D01*
X11764643Y-16948786D01*
X11755119Y-16986881D01*
X11745595Y-17005929D01*
X11736071Y-17015452D01*
X11717024Y-17024976D01*
X11697976Y-17024976D01*
X11678928Y-17015452D01*
X11669405Y-17005929D01*
X11659881Y-16986881D01*
X11650357Y-16948786D01*
X11650357Y-16901167D01*
X11659881Y-16863071D01*
X11669405Y-16844024D01*
X11678928Y-16834500D01*
X11697976Y-16824976D01*
X11850357Y-17005929D02*
X11859881Y-17015452D01*
X11850357Y-17024976D01*
X11840833Y-17015452D01*
X11850357Y-17005929D01*
X11850357Y-17024976D01*
X11983690Y-16824976D02*
X12002738Y-16824976D01*
X12021786Y-16834500D01*
X12031309Y-16844024D01*
X12040833Y-16863071D01*
X12050357Y-16901167D01*
X12050357Y-16948786D01*
X12040833Y-16986881D01*
X12031309Y-17005929D01*
X12021786Y-17015452D01*
X12002738Y-17024976D01*
X11983690Y-17024976D01*
X11964643Y-17015452D01*
X11955119Y-17005929D01*
X11945595Y-16986881D01*
X11936071Y-16948786D01*
X11936071Y-16901167D01*
X11945595Y-16863071D01*
X11955119Y-16844024D01*
X11964643Y-16834500D01*
X11983690Y-16824976D01*
X12117024Y-16824976D02*
X12240833Y-16824976D01*
X12174167Y-16901167D01*
X12202738Y-16901167D01*
X12221786Y-16910690D01*
X12231309Y-16920214D01*
X12240833Y-16939262D01*
X12240833Y-16986881D01*
X12231309Y-17005929D01*
X12221786Y-17015452D01*
X12202738Y-17024976D01*
X12145595Y-17024976D01*
X12126548Y-17015452D01*
X12117024Y-17005929D01*
X12421786Y-16824976D02*
X12326548Y-16824976D01*
X12317024Y-16920214D01*
X12326548Y-16910690D01*
X12345595Y-16901167D01*
X12393214Y-16901167D01*
X12412262Y-16910690D01*
X12421786Y-16920214D01*
X12431309Y-16939262D01*
X12431309Y-16986881D01*
X12421786Y-17005929D01*
X12412262Y-17015452D01*
X12393214Y-17024976D01*
X12345595Y-17024976D01*
X12326548Y-17015452D01*
X12317024Y-17005929D01*
X12602738Y-16891643D02*
X12602738Y-17024976D01*
X12555119Y-16815452D02*
X12507500Y-16958310D01*
X12631309Y-16958310D01*
X12697976Y-16824976D02*
X12697976Y-16863071D01*
X12774167Y-16824976D02*
X12774167Y-16863071D01*
X13069405Y-17101167D02*
X13059881Y-17091643D01*
X13040833Y-17063071D01*
X13031309Y-17044024D01*
X13021786Y-17015452D01*
X13012262Y-16967833D01*
X13012262Y-16929738D01*
X13021786Y-16882119D01*
X13031309Y-16853548D01*
X13040833Y-16834500D01*
X13059881Y-16805929D01*
X13069405Y-16796405D01*
X13136071Y-16844024D02*
X13145595Y-16834500D01*
X13164643Y-16824976D01*
X13212262Y-16824976D01*
X13231309Y-16834500D01*
X13240833Y-16844024D01*
X13250357Y-16863071D01*
X13250357Y-16882119D01*
X13240833Y-16910690D01*
X13126548Y-17024976D01*
X13250357Y-17024976D01*
X13488452Y-17024976D02*
X13488452Y-16824976D01*
X13574167Y-17024976D02*
X13574167Y-16920214D01*
X13564643Y-16901167D01*
X13545595Y-16891643D01*
X13517024Y-16891643D01*
X13497976Y-16901167D01*
X13488452Y-16910690D01*
X13697976Y-17024976D02*
X13678928Y-17015452D01*
X13669405Y-17005929D01*
X13659881Y-16986881D01*
X13659881Y-16929738D01*
X13669405Y-16910690D01*
X13678928Y-16901167D01*
X13697976Y-16891643D01*
X13726548Y-16891643D01*
X13745595Y-16901167D01*
X13755119Y-16910690D01*
X13764643Y-16929738D01*
X13764643Y-16986881D01*
X13755119Y-17005929D01*
X13745595Y-17015452D01*
X13726548Y-17024976D01*
X13697976Y-17024976D01*
X13878928Y-17024976D02*
X13859881Y-17015452D01*
X13850357Y-16996405D01*
X13850357Y-16824976D01*
X14031309Y-17015452D02*
X14012262Y-17024976D01*
X13974167Y-17024976D01*
X13955119Y-17015452D01*
X13945595Y-16996405D01*
X13945595Y-16920214D01*
X13955119Y-16901167D01*
X13974167Y-16891643D01*
X14012262Y-16891643D01*
X14031309Y-16901167D01*
X14040833Y-16920214D01*
X14040833Y-16939262D01*
X13945595Y-16958310D01*
X14117024Y-17015452D02*
X14136071Y-17024976D01*
X14174167Y-17024976D01*
X14193214Y-17015452D01*
X14202738Y-16996405D01*
X14202738Y-16986881D01*
X14193214Y-16967833D01*
X14174167Y-16958310D01*
X14145595Y-16958310D01*
X14126548Y-16948786D01*
X14117024Y-16929738D01*
X14117024Y-16920214D01*
X14126548Y-16901167D01*
X14145595Y-16891643D01*
X14174167Y-16891643D01*
X14193214Y-16901167D01*
X14269405Y-17101167D02*
X14278928Y-17091643D01*
X14297976Y-17063071D01*
X14307500Y-17044024D01*
X14317024Y-17015452D01*
X14326548Y-16967833D01*
X14326548Y-16929738D01*
X14317024Y-16882119D01*
X14307500Y-16853548D01*
X14297976Y-16834500D01*
X14278928Y-16805929D01*
X14269405Y-16796405D01*
D16*
X9447500Y-17248500D02*
X9497500Y-17198500D01*
X9447500Y-17148500D01*
X9397500Y-17198500D01*
X9447500Y-17248500D01*
D11*
X9859881Y-17288976D02*
X9745595Y-17288976D01*
X9802738Y-17288976D02*
X9802738Y-17088976D01*
X9783690Y-17117548D01*
X9764643Y-17136595D01*
X9745595Y-17146119D01*
X9945595Y-17269929D02*
X9955119Y-17279452D01*
X9945595Y-17288976D01*
X9936071Y-17279452D01*
X9945595Y-17269929D01*
X9945595Y-17288976D01*
X10078929Y-17088976D02*
X10097976Y-17088976D01*
X10117024Y-17098500D01*
X10126548Y-17108024D01*
X10136071Y-17127071D01*
X10145595Y-17165167D01*
X10145595Y-17212786D01*
X10136071Y-17250881D01*
X10126548Y-17269929D01*
X10117024Y-17279452D01*
X10097976Y-17288976D01*
X10078929Y-17288976D01*
X10059881Y-17279452D01*
X10050357Y-17269929D01*
X10040833Y-17250881D01*
X10031310Y-17212786D01*
X10031310Y-17165167D01*
X10040833Y-17127071D01*
X10050357Y-17108024D01*
X10059881Y-17098500D01*
X10078929Y-17088976D01*
X10269405Y-17088976D02*
X10288452Y-17088976D01*
X10307500Y-17098500D01*
X10317024Y-17108024D01*
X10326548Y-17127071D01*
X10336071Y-17165167D01*
X10336071Y-17212786D01*
X10326548Y-17250881D01*
X10317024Y-17269929D01*
X10307500Y-17279452D01*
X10288452Y-17288976D01*
X10269405Y-17288976D01*
X10250357Y-17279452D01*
X10240833Y-17269929D01*
X10231310Y-17250881D01*
X10221786Y-17212786D01*
X10221786Y-17165167D01*
X10231310Y-17127071D01*
X10240833Y-17108024D01*
X10250357Y-17098500D01*
X10269405Y-17088976D01*
X10459881Y-17088976D02*
X10478929Y-17088976D01*
X10497976Y-17098500D01*
X10507500Y-17108024D01*
X10517024Y-17127071D01*
X10526548Y-17165167D01*
X10526548Y-17212786D01*
X10517024Y-17250881D01*
X10507500Y-17269929D01*
X10497976Y-17279452D01*
X10478929Y-17288976D01*
X10459881Y-17288976D01*
X10440833Y-17279452D01*
X10431310Y-17269929D01*
X10421786Y-17250881D01*
X10412262Y-17212786D01*
X10412262Y-17165167D01*
X10421786Y-17127071D01*
X10431310Y-17108024D01*
X10440833Y-17098500D01*
X10459881Y-17088976D01*
X10612262Y-17288976D02*
X10612262Y-17155643D01*
X10612262Y-17174690D02*
X10621786Y-17165167D01*
X10640833Y-17155643D01*
X10669405Y-17155643D01*
X10688452Y-17165167D01*
X10697976Y-17184214D01*
X10697976Y-17288976D01*
X10697976Y-17184214D02*
X10707500Y-17165167D01*
X10726548Y-17155643D01*
X10755119Y-17155643D01*
X10774167Y-17165167D01*
X10783690Y-17184214D01*
X10783690Y-17288976D01*
X10878929Y-17288976D02*
X10878929Y-17155643D01*
X10878929Y-17174690D02*
X10888452Y-17165167D01*
X10907500Y-17155643D01*
X10936071Y-17155643D01*
X10955119Y-17165167D01*
X10964643Y-17184214D01*
X10964643Y-17288976D01*
X10964643Y-17184214D02*
X10974167Y-17165167D01*
X10993214Y-17155643D01*
X11021786Y-17155643D01*
X11040833Y-17165167D01*
X11050357Y-17184214D01*
X11050357Y-17288976D01*
X11440833Y-17079452D02*
X11269405Y-17336595D01*
X11697976Y-17088976D02*
X11717024Y-17088976D01*
X11736071Y-17098500D01*
X11745595Y-17108024D01*
X11755119Y-17127071D01*
X11764643Y-17165167D01*
X11764643Y-17212786D01*
X11755119Y-17250881D01*
X11745595Y-17269929D01*
X11736071Y-17279452D01*
X11717024Y-17288976D01*
X11697976Y-17288976D01*
X11678928Y-17279452D01*
X11669405Y-17269929D01*
X11659881Y-17250881D01*
X11650357Y-17212786D01*
X11650357Y-17165167D01*
X11659881Y-17127071D01*
X11669405Y-17108024D01*
X11678928Y-17098500D01*
X11697976Y-17088976D01*
X11850357Y-17269929D02*
X11859881Y-17279452D01*
X11850357Y-17288976D01*
X11840833Y-17279452D01*
X11850357Y-17269929D01*
X11850357Y-17288976D01*
X11983690Y-17088976D02*
X12002738Y-17088976D01*
X12021786Y-17098500D01*
X12031309Y-17108024D01*
X12040833Y-17127071D01*
X12050357Y-17165167D01*
X12050357Y-17212786D01*
X12040833Y-17250881D01*
X12031309Y-17269929D01*
X12021786Y-17279452D01*
X12002738Y-17288976D01*
X11983690Y-17288976D01*
X11964643Y-17279452D01*
X11955119Y-17269929D01*
X11945595Y-17250881D01*
X11936071Y-17212786D01*
X11936071Y-17165167D01*
X11945595Y-17127071D01*
X11955119Y-17108024D01*
X11964643Y-17098500D01*
X11983690Y-17088976D01*
X12117024Y-17088976D02*
X12240833Y-17088976D01*
X12174167Y-17165167D01*
X12202738Y-17165167D01*
X12221786Y-17174690D01*
X12231309Y-17184214D01*
X12240833Y-17203262D01*
X12240833Y-17250881D01*
X12231309Y-17269929D01*
X12221786Y-17279452D01*
X12202738Y-17288976D01*
X12145595Y-17288976D01*
X12126548Y-17279452D01*
X12117024Y-17269929D01*
X12336071Y-17288976D02*
X12374167Y-17288976D01*
X12393214Y-17279452D01*
X12402738Y-17269929D01*
X12421786Y-17241357D01*
X12431309Y-17203262D01*
X12431309Y-17127071D01*
X12421786Y-17108024D01*
X12412262Y-17098500D01*
X12393214Y-17088976D01*
X12355119Y-17088976D01*
X12336071Y-17098500D01*
X12326548Y-17108024D01*
X12317024Y-17127071D01*
X12317024Y-17174690D01*
X12326548Y-17193738D01*
X12336071Y-17203262D01*
X12355119Y-17212786D01*
X12393214Y-17212786D01*
X12412262Y-17203262D01*
X12421786Y-17193738D01*
X12431309Y-17174690D01*
X12602738Y-17155643D02*
X12602738Y-17288976D01*
X12555119Y-17079452D02*
X12507500Y-17222310D01*
X12631309Y-17222310D01*
X12697976Y-17088976D02*
X12697976Y-17127071D01*
X12774167Y-17088976D02*
X12774167Y-17127071D01*
X13069405Y-17365167D02*
X13059881Y-17355643D01*
X13040833Y-17327071D01*
X13031309Y-17308024D01*
X13021786Y-17279452D01*
X13012262Y-17231833D01*
X13012262Y-17193738D01*
X13021786Y-17146119D01*
X13031309Y-17117548D01*
X13040833Y-17098500D01*
X13059881Y-17069929D01*
X13069405Y-17060405D01*
X13240833Y-17088976D02*
X13145595Y-17088976D01*
X13136071Y-17184214D01*
X13145595Y-17174690D01*
X13164643Y-17165167D01*
X13212262Y-17165167D01*
X13231309Y-17174690D01*
X13240833Y-17184214D01*
X13250357Y-17203262D01*
X13250357Y-17250881D01*
X13240833Y-17269929D01*
X13231309Y-17279452D01*
X13212262Y-17288976D01*
X13164643Y-17288976D01*
X13145595Y-17279452D01*
X13136071Y-17269929D01*
X13431309Y-17088976D02*
X13336071Y-17088976D01*
X13326548Y-17184214D01*
X13336071Y-17174690D01*
X13355119Y-17165167D01*
X13402738Y-17165167D01*
X13421786Y-17174690D01*
X13431309Y-17184214D01*
X13440833Y-17203262D01*
X13440833Y-17250881D01*
X13431309Y-17269929D01*
X13421786Y-17279452D01*
X13402738Y-17288976D01*
X13355119Y-17288976D01*
X13336071Y-17279452D01*
X13326548Y-17269929D01*
X13678928Y-17288976D02*
X13678928Y-17088976D01*
X13764643Y-17288976D02*
X13764643Y-17184214D01*
X13755119Y-17165167D01*
X13736071Y-17155643D01*
X13707500Y-17155643D01*
X13688452Y-17165167D01*
X13678928Y-17174690D01*
X13888452Y-17288976D02*
X13869405Y-17279452D01*
X13859881Y-17269929D01*
X13850357Y-17250881D01*
X13850357Y-17193738D01*
X13859881Y-17174690D01*
X13869405Y-17165167D01*
X13888452Y-17155643D01*
X13917024Y-17155643D01*
X13936071Y-17165167D01*
X13945595Y-17174690D01*
X13955119Y-17193738D01*
X13955119Y-17250881D01*
X13945595Y-17269929D01*
X13936071Y-17279452D01*
X13917024Y-17288976D01*
X13888452Y-17288976D01*
X14069405Y-17288976D02*
X14050357Y-17279452D01*
X14040833Y-17260405D01*
X14040833Y-17088976D01*
X14221786Y-17279452D02*
X14202738Y-17288976D01*
X14164643Y-17288976D01*
X14145595Y-17279452D01*
X14136071Y-17260405D01*
X14136071Y-17184214D01*
X14145595Y-17165167D01*
X14164643Y-17155643D01*
X14202738Y-17155643D01*
X14221786Y-17165167D01*
X14231309Y-17184214D01*
X14231309Y-17203262D01*
X14136071Y-17222310D01*
X14307500Y-17279452D02*
X14326548Y-17288976D01*
X14364643Y-17288976D01*
X14383690Y-17279452D01*
X14393214Y-17260405D01*
X14393214Y-17250881D01*
X14383690Y-17231833D01*
X14364643Y-17222310D01*
X14336071Y-17222310D01*
X14317024Y-17212786D01*
X14307500Y-17193738D01*
X14307500Y-17184214D01*
X14317024Y-17165167D01*
X14336071Y-17155643D01*
X14364643Y-17155643D01*
X14383690Y-17165167D01*
X14459881Y-17365167D02*
X14469405Y-17355643D01*
X14488452Y-17327071D01*
X14497976Y-17308024D01*
X14507500Y-17279452D01*
X14517024Y-17231833D01*
X14517024Y-17193738D01*
X14507500Y-17146119D01*
X14497976Y-17117548D01*
X14488452Y-17098500D01*
X14469405Y-17069929D01*
X14459881Y-17060405D01*
D17*
X9367500Y-17397500D02*
X9497500Y-17527500D01*
X9497500Y-17397500D02*
X9367500Y-17527500D01*
X9497500Y-17462500D02*
G75*
G03*
X9497500Y-17462500I-65000J0D01*
G01*
D11*
X9859881Y-17552976D02*
X9745595Y-17552976D01*
X9802738Y-17552976D02*
X9802738Y-17352976D01*
X9783690Y-17381548D01*
X9764643Y-17400595D01*
X9745595Y-17410119D01*
X9945595Y-17533929D02*
X9955119Y-17543452D01*
X9945595Y-17552976D01*
X9936071Y-17543452D01*
X9945595Y-17533929D01*
X9945595Y-17552976D01*
X10021786Y-17352976D02*
X10145595Y-17352976D01*
X10078929Y-17429167D01*
X10107500Y-17429167D01*
X10126548Y-17438690D01*
X10136071Y-17448214D01*
X10145595Y-17467262D01*
X10145595Y-17514881D01*
X10136071Y-17533929D01*
X10126548Y-17543452D01*
X10107500Y-17552976D01*
X10050357Y-17552976D01*
X10031310Y-17543452D01*
X10021786Y-17533929D01*
X10269405Y-17352976D02*
X10288452Y-17352976D01*
X10307500Y-17362500D01*
X10317024Y-17372024D01*
X10326548Y-17391071D01*
X10336071Y-17429167D01*
X10336071Y-17476786D01*
X10326548Y-17514881D01*
X10317024Y-17533929D01*
X10307500Y-17543452D01*
X10288452Y-17552976D01*
X10269405Y-17552976D01*
X10250357Y-17543452D01*
X10240833Y-17533929D01*
X10231310Y-17514881D01*
X10221786Y-17476786D01*
X10221786Y-17429167D01*
X10231310Y-17391071D01*
X10240833Y-17372024D01*
X10250357Y-17362500D01*
X10269405Y-17352976D01*
X10459881Y-17352976D02*
X10478929Y-17352976D01*
X10497976Y-17362500D01*
X10507500Y-17372024D01*
X10517024Y-17391071D01*
X10526548Y-17429167D01*
X10526548Y-17476786D01*
X10517024Y-17514881D01*
X10507500Y-17533929D01*
X10497976Y-17543452D01*
X10478929Y-17552976D01*
X10459881Y-17552976D01*
X10440833Y-17543452D01*
X10431310Y-17533929D01*
X10421786Y-17514881D01*
X10412262Y-17476786D01*
X10412262Y-17429167D01*
X10421786Y-17391071D01*
X10431310Y-17372024D01*
X10440833Y-17362500D01*
X10459881Y-17352976D01*
X10612262Y-17552976D02*
X10612262Y-17419643D01*
X10612262Y-17438690D02*
X10621786Y-17429167D01*
X10640833Y-17419643D01*
X10669405Y-17419643D01*
X10688452Y-17429167D01*
X10697976Y-17448214D01*
X10697976Y-17552976D01*
X10697976Y-17448214D02*
X10707500Y-17429167D01*
X10726548Y-17419643D01*
X10755119Y-17419643D01*
X10774167Y-17429167D01*
X10783690Y-17448214D01*
X10783690Y-17552976D01*
X10878929Y-17552976D02*
X10878929Y-17419643D01*
X10878929Y-17438690D02*
X10888452Y-17429167D01*
X10907500Y-17419643D01*
X10936071Y-17419643D01*
X10955119Y-17429167D01*
X10964643Y-17448214D01*
X10964643Y-17552976D01*
X10964643Y-17448214D02*
X10974167Y-17429167D01*
X10993214Y-17419643D01*
X11021786Y-17419643D01*
X11040833Y-17429167D01*
X11050357Y-17448214D01*
X11050357Y-17552976D01*
X11440833Y-17343452D02*
X11269405Y-17600595D01*
X11697976Y-17352976D02*
X11717024Y-17352976D01*
X11736071Y-17362500D01*
X11745595Y-17372024D01*
X11755119Y-17391071D01*
X11764643Y-17429167D01*
X11764643Y-17476786D01*
X11755119Y-17514881D01*
X11745595Y-17533929D01*
X11736071Y-17543452D01*
X11717024Y-17552976D01*
X11697976Y-17552976D01*
X11678928Y-17543452D01*
X11669405Y-17533929D01*
X11659881Y-17514881D01*
X11650357Y-17476786D01*
X11650357Y-17429167D01*
X11659881Y-17391071D01*
X11669405Y-17372024D01*
X11678928Y-17362500D01*
X11697976Y-17352976D01*
X11850357Y-17533929D02*
X11859881Y-17543452D01*
X11850357Y-17552976D01*
X11840833Y-17543452D01*
X11850357Y-17533929D01*
X11850357Y-17552976D01*
X11983690Y-17352976D02*
X12002738Y-17352976D01*
X12021786Y-17362500D01*
X12031309Y-17372024D01*
X12040833Y-17391071D01*
X12050357Y-17429167D01*
X12050357Y-17476786D01*
X12040833Y-17514881D01*
X12031309Y-17533929D01*
X12021786Y-17543452D01*
X12002738Y-17552976D01*
X11983690Y-17552976D01*
X11964643Y-17543452D01*
X11955119Y-17533929D01*
X11945595Y-17514881D01*
X11936071Y-17476786D01*
X11936071Y-17429167D01*
X11945595Y-17391071D01*
X11955119Y-17372024D01*
X11964643Y-17362500D01*
X11983690Y-17352976D01*
X12231309Y-17352976D02*
X12136071Y-17352976D01*
X12126548Y-17448214D01*
X12136071Y-17438690D01*
X12155119Y-17429167D01*
X12202738Y-17429167D01*
X12221786Y-17438690D01*
X12231309Y-17448214D01*
X12240833Y-17467262D01*
X12240833Y-17514881D01*
X12231309Y-17533929D01*
X12221786Y-17543452D01*
X12202738Y-17552976D01*
X12155119Y-17552976D01*
X12136071Y-17543452D01*
X12126548Y-17533929D01*
X12431309Y-17552976D02*
X12317024Y-17552976D01*
X12374167Y-17552976D02*
X12374167Y-17352976D01*
X12355119Y-17381548D01*
X12336071Y-17400595D01*
X12317024Y-17410119D01*
X12507500Y-17372024D02*
X12517024Y-17362500D01*
X12536071Y-17352976D01*
X12583690Y-17352976D01*
X12602738Y-17362500D01*
X12612262Y-17372024D01*
X12621786Y-17391071D01*
X12621786Y-17410119D01*
X12612262Y-17438690D01*
X12497976Y-17552976D01*
X12621786Y-17552976D01*
X12697976Y-17352976D02*
X12697976Y-17391071D01*
X12774167Y-17352976D02*
X12774167Y-17391071D01*
X13069405Y-17629167D02*
X13059881Y-17619643D01*
X13040833Y-17591071D01*
X13031309Y-17572024D01*
X13021786Y-17543452D01*
X13012262Y-17495833D01*
X13012262Y-17457738D01*
X13021786Y-17410119D01*
X13031309Y-17381548D01*
X13040833Y-17362500D01*
X13059881Y-17333929D01*
X13069405Y-17324405D01*
X13136071Y-17372024D02*
X13145595Y-17362500D01*
X13164643Y-17352976D01*
X13212262Y-17352976D01*
X13231309Y-17362500D01*
X13240833Y-17372024D01*
X13250357Y-17391071D01*
X13250357Y-17410119D01*
X13240833Y-17438690D01*
X13126548Y-17552976D01*
X13250357Y-17552976D01*
X13488452Y-17552976D02*
X13488452Y-17352976D01*
X13574167Y-17552976D02*
X13574167Y-17448214D01*
X13564643Y-17429167D01*
X13545595Y-17419643D01*
X13517024Y-17419643D01*
X13497976Y-17429167D01*
X13488452Y-17438690D01*
X13697976Y-17552976D02*
X13678928Y-17543452D01*
X13669405Y-17533929D01*
X13659881Y-17514881D01*
X13659881Y-17457738D01*
X13669405Y-17438690D01*
X13678928Y-17429167D01*
X13697976Y-17419643D01*
X13726548Y-17419643D01*
X13745595Y-17429167D01*
X13755119Y-17438690D01*
X13764643Y-17457738D01*
X13764643Y-17514881D01*
X13755119Y-17533929D01*
X13745595Y-17543452D01*
X13726548Y-17552976D01*
X13697976Y-17552976D01*
X13878928Y-17552976D02*
X13859881Y-17543452D01*
X13850357Y-17524405D01*
X13850357Y-17352976D01*
X14031309Y-17543452D02*
X14012262Y-17552976D01*
X13974167Y-17552976D01*
X13955119Y-17543452D01*
X13945595Y-17524405D01*
X13945595Y-17448214D01*
X13955119Y-17429167D01*
X13974167Y-17419643D01*
X14012262Y-17419643D01*
X14031309Y-17429167D01*
X14040833Y-17448214D01*
X14040833Y-17467262D01*
X13945595Y-17486310D01*
X14117024Y-17543452D02*
X14136071Y-17552976D01*
X14174167Y-17552976D01*
X14193214Y-17543452D01*
X14202738Y-17524405D01*
X14202738Y-17514881D01*
X14193214Y-17495833D01*
X14174167Y-17486310D01*
X14145595Y-17486310D01*
X14126548Y-17476786D01*
X14117024Y-17457738D01*
X14117024Y-17448214D01*
X14126548Y-17429167D01*
X14145595Y-17419643D01*
X14174167Y-17419643D01*
X14193214Y-17429167D01*
X14269405Y-17629167D02*
X14278928Y-17619643D01*
X14297976Y-17591071D01*
X14307500Y-17572024D01*
X14317024Y-17543452D01*
X14326548Y-17495833D01*
X14326548Y-17457738D01*
X14317024Y-17410119D01*
X14307500Y-17381548D01*
X14297976Y-17362500D01*
X14278928Y-17333929D01*
X14269405Y-17324405D01*
X9297500Y-17626500D02*
X9497500Y-17826500D01*
X9497500Y-17626500D02*
X9297500Y-17826500D01*
X9397500Y-17626500D02*
X9397500Y-17826500D01*
X9297500Y-17726500D02*
X9497500Y-17726500D01*
X9736071Y-17616976D02*
X9859881Y-17616976D01*
X9793214Y-17693167D01*
X9821786Y-17693167D01*
X9840833Y-17702690D01*
X9850357Y-17712214D01*
X9859881Y-17731262D01*
X9859881Y-17778881D01*
X9850357Y-17797929D01*
X9840833Y-17807452D01*
X9821786Y-17816976D01*
X9764643Y-17816976D01*
X9745595Y-17807452D01*
X9736071Y-17797929D01*
X9945595Y-17797929D02*
X9955119Y-17807452D01*
X9945595Y-17816976D01*
X9936071Y-17807452D01*
X9945595Y-17797929D01*
X9945595Y-17816976D01*
X10031310Y-17636024D02*
X10040833Y-17626500D01*
X10059881Y-17616976D01*
X10107500Y-17616976D01*
X10126548Y-17626500D01*
X10136071Y-17636024D01*
X10145595Y-17655071D01*
X10145595Y-17674119D01*
X10136071Y-17702690D01*
X10021786Y-17816976D01*
X10145595Y-17816976D01*
X10269405Y-17616976D02*
X10288452Y-17616976D01*
X10307500Y-17626500D01*
X10317024Y-17636024D01*
X10326548Y-17655071D01*
X10336071Y-17693167D01*
X10336071Y-17740786D01*
X10326548Y-17778881D01*
X10317024Y-17797929D01*
X10307500Y-17807452D01*
X10288452Y-17816976D01*
X10269405Y-17816976D01*
X10250357Y-17807452D01*
X10240833Y-17797929D01*
X10231310Y-17778881D01*
X10221786Y-17740786D01*
X10221786Y-17693167D01*
X10231310Y-17655071D01*
X10240833Y-17636024D01*
X10250357Y-17626500D01*
X10269405Y-17616976D01*
X10459881Y-17616976D02*
X10478929Y-17616976D01*
X10497976Y-17626500D01*
X10507500Y-17636024D01*
X10517024Y-17655071D01*
X10526548Y-17693167D01*
X10526548Y-17740786D01*
X10517024Y-17778881D01*
X10507500Y-17797929D01*
X10497976Y-17807452D01*
X10478929Y-17816976D01*
X10459881Y-17816976D01*
X10440833Y-17807452D01*
X10431310Y-17797929D01*
X10421786Y-17778881D01*
X10412262Y-17740786D01*
X10412262Y-17693167D01*
X10421786Y-17655071D01*
X10431310Y-17636024D01*
X10440833Y-17626500D01*
X10459881Y-17616976D01*
X10612262Y-17816976D02*
X10612262Y-17683643D01*
X10612262Y-17702690D02*
X10621786Y-17693167D01*
X10640833Y-17683643D01*
X10669405Y-17683643D01*
X10688452Y-17693167D01*
X10697976Y-17712214D01*
X10697976Y-17816976D01*
X10697976Y-17712214D02*
X10707500Y-17693167D01*
X10726548Y-17683643D01*
X10755119Y-17683643D01*
X10774167Y-17693167D01*
X10783690Y-17712214D01*
X10783690Y-17816976D01*
X10878929Y-17816976D02*
X10878929Y-17683643D01*
X10878929Y-17702690D02*
X10888452Y-17693167D01*
X10907500Y-17683643D01*
X10936071Y-17683643D01*
X10955119Y-17693167D01*
X10964643Y-17712214D01*
X10964643Y-17816976D01*
X10964643Y-17712214D02*
X10974167Y-17693167D01*
X10993214Y-17683643D01*
X11021786Y-17683643D01*
X11040833Y-17693167D01*
X11050357Y-17712214D01*
X11050357Y-17816976D01*
X11440833Y-17607452D02*
X11269405Y-17864595D01*
X11697976Y-17616976D02*
X11717024Y-17616976D01*
X11736071Y-17626500D01*
X11745595Y-17636024D01*
X11755119Y-17655071D01*
X11764643Y-17693167D01*
X11764643Y-17740786D01*
X11755119Y-17778881D01*
X11745595Y-17797929D01*
X11736071Y-17807452D01*
X11717024Y-17816976D01*
X11697976Y-17816976D01*
X11678928Y-17807452D01*
X11669405Y-17797929D01*
X11659881Y-17778881D01*
X11650357Y-17740786D01*
X11650357Y-17693167D01*
X11659881Y-17655071D01*
X11669405Y-17636024D01*
X11678928Y-17626500D01*
X11697976Y-17616976D01*
X11850357Y-17797929D02*
X11859881Y-17807452D01*
X11850357Y-17816976D01*
X11840833Y-17807452D01*
X11850357Y-17797929D01*
X11850357Y-17816976D01*
X12050357Y-17816976D02*
X11936071Y-17816976D01*
X11993214Y-17816976D02*
X11993214Y-17616976D01*
X11974167Y-17645548D01*
X11955119Y-17664595D01*
X11936071Y-17674119D01*
X12126548Y-17636024D02*
X12136071Y-17626500D01*
X12155119Y-17616976D01*
X12202738Y-17616976D01*
X12221786Y-17626500D01*
X12231309Y-17636024D01*
X12240833Y-17655071D01*
X12240833Y-17674119D01*
X12231309Y-17702690D01*
X12117024Y-17816976D01*
X12240833Y-17816976D01*
X12412262Y-17616976D02*
X12374167Y-17616976D01*
X12355119Y-17626500D01*
X12345595Y-17636024D01*
X12326548Y-17664595D01*
X12317024Y-17702690D01*
X12317024Y-17778881D01*
X12326548Y-17797929D01*
X12336071Y-17807452D01*
X12355119Y-17816976D01*
X12393214Y-17816976D01*
X12412262Y-17807452D01*
X12421786Y-17797929D01*
X12431309Y-17778881D01*
X12431309Y-17731262D01*
X12421786Y-17712214D01*
X12412262Y-17702690D01*
X12393214Y-17693167D01*
X12355119Y-17693167D01*
X12336071Y-17702690D01*
X12326548Y-17712214D01*
X12317024Y-17731262D01*
X12555119Y-17616976D02*
X12574167Y-17616976D01*
X12593214Y-17626500D01*
X12602738Y-17636024D01*
X12612262Y-17655071D01*
X12621786Y-17693167D01*
X12621786Y-17740786D01*
X12612262Y-17778881D01*
X12602738Y-17797929D01*
X12593214Y-17807452D01*
X12574167Y-17816976D01*
X12555119Y-17816976D01*
X12536071Y-17807452D01*
X12526548Y-17797929D01*
X12517024Y-17778881D01*
X12507500Y-17740786D01*
X12507500Y-17693167D01*
X12517024Y-17655071D01*
X12526548Y-17636024D01*
X12536071Y-17626500D01*
X12555119Y-17616976D01*
X12697976Y-17616976D02*
X12697976Y-17655071D01*
X12774167Y-17616976D02*
X12774167Y-17655071D01*
X13069405Y-17893167D02*
X13059881Y-17883643D01*
X13040833Y-17855071D01*
X13031309Y-17836024D01*
X13021786Y-17807452D01*
X13012262Y-17759833D01*
X13012262Y-17721738D01*
X13021786Y-17674119D01*
X13031309Y-17645548D01*
X13040833Y-17626500D01*
X13059881Y-17597929D01*
X13069405Y-17588405D01*
X13136071Y-17636024D02*
X13145595Y-17626500D01*
X13164643Y-17616976D01*
X13212262Y-17616976D01*
X13231309Y-17626500D01*
X13240833Y-17636024D01*
X13250357Y-17655071D01*
X13250357Y-17674119D01*
X13240833Y-17702690D01*
X13126548Y-17816976D01*
X13250357Y-17816976D01*
X13488452Y-17816976D02*
X13488452Y-17616976D01*
X13574167Y-17816976D02*
X13574167Y-17712214D01*
X13564643Y-17693167D01*
X13545595Y-17683643D01*
X13517024Y-17683643D01*
X13497976Y-17693167D01*
X13488452Y-17702690D01*
X13697976Y-17816976D02*
X13678928Y-17807452D01*
X13669405Y-17797929D01*
X13659881Y-17778881D01*
X13659881Y-17721738D01*
X13669405Y-17702690D01*
X13678928Y-17693167D01*
X13697976Y-17683643D01*
X13726548Y-17683643D01*
X13745595Y-17693167D01*
X13755119Y-17702690D01*
X13764643Y-17721738D01*
X13764643Y-17778881D01*
X13755119Y-17797929D01*
X13745595Y-17807452D01*
X13726548Y-17816976D01*
X13697976Y-17816976D01*
X13878928Y-17816976D02*
X13859881Y-17807452D01*
X13850357Y-17788405D01*
X13850357Y-17616976D01*
X14031309Y-17807452D02*
X14012262Y-17816976D01*
X13974167Y-17816976D01*
X13955119Y-17807452D01*
X13945595Y-17788405D01*
X13945595Y-17712214D01*
X13955119Y-17693167D01*
X13974167Y-17683643D01*
X14012262Y-17683643D01*
X14031309Y-17693167D01*
X14040833Y-17712214D01*
X14040833Y-17731262D01*
X13945595Y-17750310D01*
X14117024Y-17807452D02*
X14136071Y-17816976D01*
X14174167Y-17816976D01*
X14193214Y-17807452D01*
X14202738Y-17788405D01*
X14202738Y-17778881D01*
X14193214Y-17759833D01*
X14174167Y-17750310D01*
X14145595Y-17750310D01*
X14126548Y-17740786D01*
X14117024Y-17721738D01*
X14117024Y-17712214D01*
X14126548Y-17693167D01*
X14145595Y-17683643D01*
X14174167Y-17683643D01*
X14193214Y-17693167D01*
X14269405Y-17893167D02*
X14278928Y-17883643D01*
X14297976Y-17855071D01*
X14307500Y-17836024D01*
X14317024Y-17807452D01*
X14326548Y-17759833D01*
X14326548Y-17721738D01*
X14317024Y-17674119D01*
X14307500Y-17645548D01*
X14297976Y-17626500D01*
X14278928Y-17597929D01*
X14269405Y-17588405D01*
M02*
