M48
; DRILL file {KiCad (6.0.5)} date Wed Sep 30 20:59:00 2026
; FORMAT={-:-/ absolute / metric / decimal}
; #@! TF.CreationDate,2026-09-30T20:59:00+03:00
; #@! TF.GenerationSoftware,Kicad,Pcbnew,(6.0.5)
; #@! TF.FileFunction,Plated,1,2,PTH
FMAT,2
METRIC
; #@! TA.AperFunction,Plated,PTH,ViaDrill
T1C0.400
; #@! TA.AperFunction,Plated,PTH,ComponentDrill
T2C0.600
; #@! TA.AperFunction,Plated,PTH,ComponentDrill
T3C0.800
; #@! TA.AperFunction,Plated,PTH,ComponentDrill
T4C0.900
; #@! TA.AperFunction,Plated,PTH,ComponentDrill
T5C1.000
; #@! TA.AperFunction,Plated,PTH,ComponentDrill
T6C1.300
; #@! TA.AperFunction,Plated,PTH,ComponentDrill
T7C3.200
%
G90
G05
T1
X99.56Y-109.535
X100.195Y-118.425
X101.605Y-119.695
X102.1Y-112.075
X102.735Y-87.31
X103.37Y-114.615
X103.37Y-115.885
X104.64Y-122.235
X105.91Y-86.675
X105.91Y-90.485
X105.91Y-106.995
X105.91Y-113.345
X107.18Y-118.425
X108.45Y-134.3
X108.45Y-136.84
X108.45Y-144.46
X109.085Y-120.965
X109.58Y-105.564
X109.58Y-106.995
X109.72Y-129.22
X110.355Y-119.695
X110.478Y-87.29
X110.99Y-129.22
X114.8Y-131.76
X116.705Y-115.885
X117.34Y-136.84
X117.48Y-94.295
X118.61Y-113.345
X119.385Y-93.025
X120.375Y-89.85
X121.15Y-113.345
X121.152Y-96.78
X122.42Y-134.935
X123.055Y-110.805
X123.195Y-99.375
X123.69Y-122.235
X123.69Y-133.03
X124.325Y-120.965
X124.96Y-96.835
X126.23Y-120.965
X126.23Y-145.73
X127.5Y-101.915
X128.135Y-106.995
X132.58Y-92.39
X132.961Y-104.836
X133.285Y-113.275
X134.485Y-122.87
X134.739Y-95.819
X135.755Y-101.915
X135.755Y-121.6
X136.335Y-94.79
X137.66Y-83.5
X137.787Y-95.184
X138.295Y-118.425
X140.835Y-96.835
X142.105Y-96.835
X142.63Y-105.275
X142.74Y-99.235
X143.375Y-96.835
X144.01Y-146.365
X144.01Y-148.27
X144.645Y-109.646
X145.915Y-132.395
X145.915Y-136.84
X147.82Y-100.01
X149.09Y-146.365
X149.09Y-148.27
X149.725Y-116.55
X150.36Y-89.85
X151.63Y-95.62
X152.265Y-110.805
X152.9Y-100.01
X153.535Y-129.22
X154.17Y-91.869
X154.17Y-98.74
X154.177Y-93.667
X155.44Y-98.74
X155.44Y-110.805
X155.44Y-111.995
X155.44Y-139.38
X156.71Y-92.335
X156.71Y-121.105
X158.154Y-102.429
X159.25Y-92.39
X160.52Y-102.423
X160.52Y-117.142
X161.155Y-127.95
X161.79Y-95.07
X161.79Y-110.17
X163.06Y-112.85
X163.695Y-116.52
X163.695Y-127.95
X164.33Y-98.74
X165.6Y-113.98
X166.87Y-98.105
X166.87Y-129.22
X168.14Y-93.52
X168.775Y-113.98
X170.877Y-118.228
X171.95Y-98.105
X171.95Y-110.17
X171.95Y-111.44
X171.95Y-115.25
X171.95Y-129.22
X172.077Y-90.993
X174.49Y-117.79
X174.49Y-126.68
X174.63Y-112.71
X176.094Y-113.819
X176.395Y-94.295
X176.395Y-120.33
X176.395Y-125.41
X177.085Y-92.445
X179.57Y-100.01
X179.57Y-141.92
X182.11Y-131.125
X182.745Y-94.93
X182.745Y-110.17
X182.745Y-121.6
X182.745Y-124.14
X182.745Y-129.22
X183.38Y-100.01
X183.38Y-116.52
X185.92Y-113.98
T2
X136.39Y-152.08
X138.39Y-152.08
X162.425Y-139.38
X162.425Y-141.38
X164.965Y-144.365
X164.965Y-146.365
X164.965Y-150.08
X164.965Y-152.08
X165.505Y-137.475
X167.505Y-137.475
X170.585Y-136.84
X172.585Y-136.84
X185.825Y-151.445
X187.825Y-151.445
T3
X97.02Y-89.215
X97.02Y-93.025
X97.02Y-95.565
X97.02Y-98.105
X97.02Y-100.645
X97.02Y-103.185
X97.02Y-105.725
X97.02Y-108.265
X97.02Y-110.805
X97.02Y-113.345
X97.02Y-115.885
X97.02Y-118.425
X97.02Y-120.965
X97.56Y-126.045
X98.29Y-138.19
X98.29Y-143.19
X99.56Y-89.215
X99.56Y-126.045
X102.1Y-89.215
X103.37Y-124.775
X103.37Y-140.015
X104.64Y-89.215
X105.91Y-124.775
X105.91Y-140.015
X107.18Y-89.215
X108.45Y-124.775
X108.45Y-140.015
X109.72Y-89.215
X110.99Y-124.775
X110.99Y-140.015
X112.26Y-89.215
X112.26Y-93.025
X112.26Y-95.565
X112.26Y-98.105
X112.26Y-100.645
X112.26Y-103.185
X112.26Y-105.725
X112.26Y-108.265
X112.26Y-110.805
X112.26Y-113.345
X112.26Y-115.885
X112.26Y-118.425
X112.26Y-120.965
X113.53Y-124.775
X113.53Y-140.015
X114.8Y-89.215
X114.8Y-93.025
X114.8Y-95.565
X114.8Y-98.105
X114.8Y-100.645
X114.8Y-103.185
X114.8Y-105.725
X114.8Y-108.265
X114.8Y-110.805
X114.8Y-113.345
X114.8Y-115.885
X114.8Y-118.425
X114.8Y-120.965
X116.07Y-124.775
X116.07Y-140.015
X117.34Y-89.215
X118.61Y-124.775
X118.61Y-140.015
X121.15Y-124.775
X121.15Y-140.015
X123.69Y-124.775
X123.69Y-140.015
X125.04Y-89.215
X126.23Y-124.775
X126.23Y-140.015
X128.77Y-124.775
X128.77Y-140.015
X130.04Y-89.215
X130.04Y-93.025
X130.04Y-95.565
X130.04Y-98.105
X130.04Y-100.645
X130.04Y-103.185
X130.04Y-105.725
X130.04Y-108.265
X130.04Y-110.805
X130.04Y-113.345
X130.04Y-115.885
X130.04Y-118.425
X130.04Y-120.965
X131.31Y-124.775
X131.31Y-140.015
X133.215Y-89.215
X133.215Y-96.835
X133.215Y-100.01
X133.215Y-107.63
X133.215Y-110.805
X133.215Y-118.425
X133.85Y-124.775
X133.85Y-140.015
X136.39Y-106.995
X136.39Y-111.995
X136.39Y-124.775
X136.39Y-140.015
X137.025Y-143.19
X137.025Y-148.19
X138.93Y-88.58
X138.93Y-103.82
X140.2Y-106.995
X140.2Y-122.235
X140.2Y-125.41
X140.2Y-127.95
X140.2Y-130.49
X140.2Y-133.03
X140.2Y-135.57
X140.2Y-138.11
X140.2Y-140.65
X141.47Y-88.58
X141.47Y-103.82
X142.74Y-106.995
X142.74Y-122.235
X142.74Y-144.46
X142.74Y-152.08
X144.01Y-88.58
X144.01Y-103.82
X145.28Y-106.995
X145.28Y-122.235
X145.28Y-144.46
X145.28Y-152.08
X146.55Y-88.58
X146.55Y-103.82
X147.82Y-106.995
X147.82Y-122.235
X147.82Y-125.41
X147.82Y-127.95
X147.82Y-130.49
X147.82Y-133.03
X147.82Y-135.57
X147.82Y-138.11
X147.82Y-140.65
X147.82Y-144.46
X147.82Y-152.08
X149.09Y-88.58
X149.09Y-103.82
X150.36Y-106.995
X150.36Y-122.235
X150.36Y-144.46
X150.36Y-152.08
X150.995Y-125.41
X150.995Y-127.95
X150.995Y-130.49
X150.995Y-133.03
X150.995Y-135.57
X150.995Y-138.11
X150.995Y-140.65
X151.63Y-88.58
X151.63Y-103.82
X152.9Y-106.995
X152.9Y-122.235
X152.9Y-144.46
X152.9Y-152.08
X154.17Y-88.58
X154.17Y-103.82
X155.44Y-106.995
X155.44Y-122.235
X155.44Y-144.46
X155.44Y-152.08
X156.71Y-88.58
X156.71Y-103.82
X157.98Y-106.995
X157.98Y-122.235
X157.98Y-144.46
X157.98Y-152.08
X158.615Y-125.41
X158.615Y-127.95
X158.615Y-130.49
X158.615Y-133.03
X158.615Y-135.57
X158.615Y-138.11
X158.615Y-140.65
X159.25Y-88.58
X159.25Y-103.82
X160.52Y-106.995
X160.52Y-122.235
X160.52Y-144.46
X160.52Y-152.08
X161.155Y-85.405
X161.79Y-88.58
X161.79Y-103.82
X161.79Y-125.49
X161.79Y-130.49
X163.06Y-106.995
X163.06Y-122.235
X163.775Y-82.23
X164.33Y-88.58
X164.33Y-103.82
X165.6Y-106.995
X165.6Y-122.235
X165.6Y-125.41
X165.6Y-133.03
X166.87Y-88.58
X166.87Y-103.82
X166.87Y-141.285
X168.14Y-106.995
X168.14Y-122.235
X168.14Y-125.41
X168.14Y-133.03
X168.775Y-82.23
X168.775Y-85.405
X169.41Y-88.58
X169.41Y-103.82
X170.045Y-145.095
X170.68Y-106.995
X170.68Y-122.235
X170.68Y-125.41
X170.68Y-133.03
X171.87Y-141.285
X171.95Y-88.58
X171.95Y-103.82
X173.22Y-106.995
X173.22Y-122.235
X173.22Y-125.41
X173.22Y-133.03
X174.49Y-88.58
X174.49Y-103.82
X175.125Y-136.205
X175.125Y-141.205
X176.395Y-106.995
X176.395Y-110.17
X176.395Y-117.79
X176.395Y-122.95
X176.395Y-127.95
X177.03Y-88.58
X177.03Y-103.82
X177.665Y-145.095
X179.57Y-88.58
X179.57Y-103.82
X179.57Y-110.17
X179.57Y-112.71
X179.57Y-115.25
X179.57Y-117.79
X179.57Y-120.33
X179.57Y-122.87
X179.57Y-125.41
X179.57Y-127.95
X179.57Y-133.865
X179.57Y-138.745
X181.395Y-106.995
X182.11Y-88.58
X182.11Y-103.82
X183.46Y-106.995
X184.65Y-88.58
X184.65Y-103.82
X184.65Y-138.11
X184.65Y-145.73
X187.19Y-88.58
X187.19Y-103.82
X187.19Y-110.17
X187.19Y-112.71
X187.19Y-115.25
X187.19Y-117.79
X187.19Y-120.33
X187.19Y-122.87
X187.19Y-125.41
X187.19Y-127.95
X187.825Y-138.11
X187.825Y-145.73
X188.46Y-106.995
T4
X179.189Y-149.921
X181.729Y-149.921
T5
X103.37Y-82.23
X103.37Y-84.77
X105.91Y-82.23
X105.91Y-84.77
X108.45Y-82.23
X108.45Y-84.77
X110.99Y-82.23
X110.99Y-84.77
X112.0Y-144.08
X113.385Y-146.92
X113.53Y-82.23
X113.53Y-84.77
X114.77Y-144.08
X116.07Y-82.23
X116.07Y-84.77
X116.155Y-146.92
X117.54Y-144.08
X118.61Y-82.23
X118.61Y-84.77
X118.925Y-146.92
X120.31Y-144.08
X121.15Y-82.23
X121.15Y-84.77
X121.695Y-146.92
X123.08Y-144.08
X123.69Y-82.23
X123.69Y-84.77
X126.23Y-82.23
X126.23Y-84.77
X128.77Y-82.23
X128.77Y-84.77
X131.31Y-82.23
X131.31Y-84.77
X133.85Y-82.23
X133.85Y-84.77
X136.39Y-82.23
X136.39Y-84.77
X138.93Y-82.23
X138.93Y-84.77
X141.47Y-82.23
X141.47Y-84.77
X144.01Y-82.23
X144.01Y-84.77
X146.55Y-82.23
X146.55Y-84.77
X149.09Y-82.23
X149.09Y-84.77
X151.63Y-82.23
X151.63Y-84.77
X170.117Y-152.207
X171.88Y-86.0
X174.42Y-86.0
X174.617Y-152.207
X176.96Y-86.0
X179.5Y-86.0
T6
X168.867Y-149.707
X175.867Y-149.707
T7
X105.04Y-145.5
X130.04Y-145.5
T0
M30
